<mxfile host="app.diagrams.net" modified="2024-03-24T02:13:30.766Z" agent="Mozilla/5.0 (Windows NT 10.0; Win64; x64) AppleWebKit/537.36 (KHTML, like Gecko) Chrome/122.0.0.0 Safari/537.36" etag="tgY_2T-vMwen6HITMh_E" version="24.1.0" type="github" pages="3">
  <diagram id="4hzU970K3IGeOto9s-U-" name="본당 입력">
    <mxGraphModel dx="2163" dy="1796" grid="1" gridSize="10" guides="1" tooltips="1" connect="1" arrows="1" fold="1" page="1" pageScale="1" pageWidth="850" pageHeight="1100" math="0" shadow="0">
      <root>
        <mxCell id="0" />
        <mxCell id="1" parent="0" />
        <mxCell id="p8GK5SyPZ3NwdRlFlCjc-94" value="" style="rounded=0;whiteSpace=wrap;html=1;fillColor=none;movable=0;resizable=0;rotatable=0;deletable=0;editable=0;locked=1;connectable=0;" vertex="1" parent="1">
          <mxGeometry x="2" y="520" width="845.71" height="200" as="geometry" />
        </mxCell>
        <mxCell id="p8GK5SyPZ3NwdRlFlCjc-1" value="" style="rounded=0;whiteSpace=wrap;html=1;fillColor=none;movable=0;resizable=0;rotatable=0;deletable=0;editable=0;locked=1;connectable=0;" vertex="1" parent="1">
          <mxGeometry width="850" height="280" as="geometry" />
        </mxCell>
        <mxCell id="p8GK5SyPZ3NwdRlFlCjc-2" value="" style="rounded=0;whiteSpace=wrap;html=1;fillColor=none;" vertex="1" parent="1">
          <mxGeometry x="325" y="80" width="200" height="80" as="geometry" />
        </mxCell>
        <mxCell id="p8GK5SyPZ3NwdRlFlCjc-3" value="Podium&lt;div&gt;강대상&lt;/div&gt;" style="text;html=1;align=center;verticalAlign=middle;whiteSpace=wrap;rounded=0;fillColor=#bac8d3;strokeColor=#23445d;" vertex="1" parent="1">
          <mxGeometry x="395" y="80" width="60" height="40" as="geometry" />
        </mxCell>
        <mxCell id="p8GK5SyPZ3NwdRlFlCjc-7" value="" style="pointerEvents=1;verticalLabelPosition=bottom;shadow=0;dashed=0;align=center;html=1;verticalAlign=top;shape=mxgraph.electrical.electro-mechanical.loudspeaker;" vertex="1" parent="1">
          <mxGeometry x="325" y="30" width="25" height="50" as="geometry" />
        </mxCell>
        <mxCell id="p8GK5SyPZ3NwdRlFlCjc-22" value="" style="pointerEvents=1;verticalLabelPosition=bottom;shadow=0;dashed=0;align=center;html=1;verticalAlign=top;shape=mxgraph.electrical.miscellaneous.plug_socket_connection" vertex="1" parent="1">
          <mxGeometry x="675" y="280" width="20" height="20" as="geometry" />
        </mxCell>
        <mxCell id="p8GK5SyPZ3NwdRlFlCjc-26" value="" style="pointerEvents=1;verticalLabelPosition=bottom;shadow=0;dashed=0;align=center;html=1;verticalAlign=top;shape=mxgraph.electrical.electro-mechanical.loudspeaker;rotation=-180;" vertex="1" parent="1">
          <mxGeometry x="500" y="30" width="25" height="50" as="geometry" />
        </mxCell>
        <mxCell id="p8GK5SyPZ3NwdRlFlCjc-190" style="edgeStyle=orthogonalEdgeStyle;rounded=0;orthogonalLoop=1;jettySize=auto;html=1;exitX=1;exitY=0.5;exitDx=0;exitDy=0;exitPerimeter=0;" edge="1" parent="1" source="p8GK5SyPZ3NwdRlFlCjc-30">
          <mxGeometry relative="1" as="geometry">
            <mxPoint x="454.5" y="180.00000000000023" as="targetPoint" />
          </mxGeometry>
        </mxCell>
        <mxCell id="p8GK5SyPZ3NwdRlFlCjc-30" value="" style="verticalLabelPosition=bottom;shadow=0;dashed=0;align=center;html=1;verticalAlign=top;shape=mxgraph.electrical.radio.electret_microphone;rotation=90;" vertex="1" parent="1">
          <mxGeometry x="435" y="120" width="40" height="40" as="geometry" />
        </mxCell>
        <mxCell id="p8GK5SyPZ3NwdRlFlCjc-189" style="edgeStyle=orthogonalEdgeStyle;rounded=0;orthogonalLoop=1;jettySize=auto;html=1;exitX=1;exitY=0.5;exitDx=0;exitDy=0;exitPerimeter=0;" edge="1" parent="1" source="p8GK5SyPZ3NwdRlFlCjc-31">
          <mxGeometry relative="1" as="geometry">
            <mxPoint x="394.5" y="180.00000000000023" as="targetPoint" />
          </mxGeometry>
        </mxCell>
        <mxCell id="p8GK5SyPZ3NwdRlFlCjc-31" value="" style="verticalLabelPosition=bottom;shadow=0;dashed=0;align=center;html=1;verticalAlign=top;shape=mxgraph.electrical.radio.electret_microphone;rotation=90;" vertex="1" parent="1">
          <mxGeometry x="375" y="120" width="40" height="40" as="geometry" />
        </mxCell>
        <mxCell id="p8GK5SyPZ3NwdRlFlCjc-33" value="" style="pointerEvents=1;verticalLabelPosition=bottom;shadow=0;dashed=0;align=center;html=1;verticalAlign=top;shape=mxgraph.electrical.electro-mechanical.loudspeaker;rotation=90;" vertex="1" parent="1">
          <mxGeometry x="149" y="180" width="42.5" height="80" as="geometry" />
        </mxCell>
        <mxCell id="p8GK5SyPZ3NwdRlFlCjc-34" value="" style="pointerEvents=1;verticalLabelPosition=bottom;shadow=0;dashed=0;align=center;html=1;verticalAlign=top;shape=mxgraph.electrical.electro-mechanical.loudspeaker;rotation=90;" vertex="1" parent="1">
          <mxGeometry x="669" y="180" width="42.5" height="80" as="geometry" />
        </mxCell>
        <mxCell id="p8GK5SyPZ3NwdRlFlCjc-35" value="" style="pointerEvents=1;verticalLabelPosition=bottom;shadow=0;dashed=0;align=center;html=1;verticalAlign=top;shape=mxgraph.electrical.miscellaneous.plug_socket_connection" vertex="1" parent="1">
          <mxGeometry x="705" y="280" width="20" height="20" as="geometry" />
        </mxCell>
        <mxCell id="p8GK5SyPZ3NwdRlFlCjc-83" style="edgeStyle=orthogonalEdgeStyle;rounded=0;orthogonalLoop=1;jettySize=auto;html=1;exitX=1;exitY=0.5;exitDx=0;exitDy=0;exitPerimeter=0;" edge="1" parent="1" source="p8GK5SyPZ3NwdRlFlCjc-81" target="p8GK5SyPZ3NwdRlFlCjc-39">
          <mxGeometry relative="1" as="geometry">
            <mxPoint x="745" y="480" as="sourcePoint" />
          </mxGeometry>
        </mxCell>
        <mxCell id="p8GK5SyPZ3NwdRlFlCjc-39" value="" style="pointerEvents=1;verticalLabelPosition=bottom;shadow=0;dashed=0;align=center;html=1;verticalAlign=top;shape=mxgraph.electrical.miscellaneous.plug_socket_connection" vertex="1" parent="1">
          <mxGeometry x="735" y="280" width="20" height="20" as="geometry" />
        </mxCell>
        <mxCell id="p8GK5SyPZ3NwdRlFlCjc-40" value="" style="pointerEvents=1;verticalLabelPosition=bottom;shadow=0;dashed=0;align=center;html=1;verticalAlign=top;shape=mxgraph.electrical.miscellaneous.plug_socket_connection" vertex="1" parent="1">
          <mxGeometry x="765" y="280" width="20" height="20" as="geometry" />
        </mxCell>
        <mxCell id="p8GK5SyPZ3NwdRlFlCjc-41" value="" style="pointerEvents=1;verticalLabelPosition=bottom;shadow=0;dashed=0;align=center;html=1;verticalAlign=top;shape=mxgraph.electrical.miscellaneous.plug_socket_connection" vertex="1" parent="1">
          <mxGeometry x="65" y="280" width="20" height="20" as="geometry" />
        </mxCell>
        <mxCell id="p8GK5SyPZ3NwdRlFlCjc-42" value="" style="pointerEvents=1;verticalLabelPosition=bottom;shadow=0;dashed=0;align=center;html=1;verticalAlign=top;shape=mxgraph.electrical.miscellaneous.plug_socket_connection" vertex="1" parent="1">
          <mxGeometry x="95" y="280" width="20" height="20" as="geometry" />
        </mxCell>
        <mxCell id="p8GK5SyPZ3NwdRlFlCjc-43" value="" style="pointerEvents=1;verticalLabelPosition=bottom;shadow=0;dashed=0;align=center;html=1;verticalAlign=top;shape=mxgraph.electrical.miscellaneous.plug_socket_connection" vertex="1" parent="1">
          <mxGeometry x="125" y="280" width="20" height="20" as="geometry" />
        </mxCell>
        <mxCell id="p8GK5SyPZ3NwdRlFlCjc-44" value="" style="pointerEvents=1;verticalLabelPosition=bottom;shadow=0;dashed=0;align=center;html=1;verticalAlign=top;shape=mxgraph.electrical.miscellaneous.plug_socket_connection" vertex="1" parent="1">
          <mxGeometry x="155" y="280" width="20" height="20" as="geometry" />
        </mxCell>
        <mxCell id="p8GK5SyPZ3NwdRlFlCjc-45" value="순서대로&lt;div&gt;L1, L2, L3, L4&lt;/div&gt;" style="text;html=1;align=center;verticalAlign=middle;whiteSpace=wrap;rounded=0;fillColor=#cdeb8b;strokeColor=none;" vertex="1" parent="1">
          <mxGeometry x="-20" y="290" width="85" height="30" as="geometry" />
        </mxCell>
        <mxCell id="p8GK5SyPZ3NwdRlFlCjc-46" value="순서대로&lt;div&gt;R1, R2, R3, R4&lt;/div&gt;" style="text;html=1;align=center;verticalAlign=middle;whiteSpace=wrap;rounded=0;fillColor=#b1ddf0;strokeColor=#10739e;" vertex="1" parent="1">
          <mxGeometry x="790" y="290" width="85" height="30" as="geometry" />
        </mxCell>
        <mxCell id="p8GK5SyPZ3NwdRlFlCjc-47" value="메인 스피커" style="text;html=1;align=center;verticalAlign=middle;whiteSpace=wrap;rounded=0;" vertex="1" parent="1">
          <mxGeometry x="210" y="210" width="85" height="30" as="geometry" />
        </mxCell>
        <mxCell id="p8GK5SyPZ3NwdRlFlCjc-48" value="메인 스피커" style="text;html=1;align=center;verticalAlign=middle;whiteSpace=wrap;rounded=0;" vertex="1" parent="1">
          <mxGeometry x="560" y="210" width="85" height="30" as="geometry" />
        </mxCell>
        <mxCell id="p8GK5SyPZ3NwdRlFlCjc-49" value="Podium 강대상&lt;div&gt;모니터 스피커&lt;/div&gt;" style="text;html=1;align=center;verticalAlign=middle;whiteSpace=wrap;rounded=0;" vertex="1" parent="1">
          <mxGeometry x="382.5" y="40" width="85" height="30" as="geometry" />
        </mxCell>
        <mxCell id="p8GK5SyPZ3NwdRlFlCjc-51" value="L2" style="verticalLabelPosition=middle;shadow=0;dashed=0;align=center;html=1;verticalAlign=middle;shape=mxgraph.electrical.radio.microphone_1;rotation=-90;labelPosition=center;" vertex="1" parent="1">
          <mxGeometry x="87.5" y="399.93" width="35" height="34.15" as="geometry" />
        </mxCell>
        <mxCell id="p8GK5SyPZ3NwdRlFlCjc-54" style="edgeStyle=orthogonalEdgeStyle;rounded=0;orthogonalLoop=1;jettySize=auto;html=1;entryX=0.5;entryY=0.5;entryDx=0;entryDy=0;entryPerimeter=0;" edge="1" parent="1" source="p8GK5SyPZ3NwdRlFlCjc-51" target="p8GK5SyPZ3NwdRlFlCjc-42">
          <mxGeometry relative="1" as="geometry" />
        </mxCell>
        <mxCell id="p8GK5SyPZ3NwdRlFlCjc-66" value="" style="group" vertex="1" connectable="0" parent="1">
          <mxGeometry x="5" y="179" width="60" height="30" as="geometry" />
        </mxCell>
        <mxCell id="p8GK5SyPZ3NwdRlFlCjc-158" style="edgeStyle=orthogonalEdgeStyle;rounded=0;orthogonalLoop=1;jettySize=auto;html=1;exitX=1;exitY=0.5;exitDx=0;exitDy=0;exitPerimeter=0;" edge="1" parent="p8GK5SyPZ3NwdRlFlCjc-66" source="p8GK5SyPZ3NwdRlFlCjc-64">
          <mxGeometry relative="1" as="geometry">
            <mxPoint x="14.5" y="-59.99999999999977" as="targetPoint" />
          </mxGeometry>
        </mxCell>
        <mxCell id="p8GK5SyPZ3NwdRlFlCjc-64" value="" style="verticalLabelPosition=bottom;shadow=0;dashed=0;align=center;html=1;verticalAlign=top;shape=mxgraph.electrical.radio.electret_microphone;rotation=-90;" vertex="1" parent="p8GK5SyPZ3NwdRlFlCjc-66">
          <mxGeometry width="30" height="30" as="geometry" />
        </mxCell>
        <mxCell id="p8GK5SyPZ3NwdRlFlCjc-157" style="edgeStyle=orthogonalEdgeStyle;rounded=0;orthogonalLoop=1;jettySize=auto;html=1;" edge="1" parent="p8GK5SyPZ3NwdRlFlCjc-66" source="p8GK5SyPZ3NwdRlFlCjc-65">
          <mxGeometry relative="1" as="geometry">
            <mxPoint x="45" y="-59.99999999999977" as="targetPoint" />
          </mxGeometry>
        </mxCell>
        <mxCell id="p8GK5SyPZ3NwdRlFlCjc-65" value="" style="verticalLabelPosition=bottom;shadow=0;dashed=0;align=center;html=1;verticalAlign=top;shape=mxgraph.electrical.radio.electret_microphone;rotation=-90;" vertex="1" parent="p8GK5SyPZ3NwdRlFlCjc-66">
          <mxGeometry x="30" width="30" height="30" as="geometry" />
        </mxCell>
        <mxCell id="p8GK5SyPZ3NwdRlFlCjc-70" value="" style="group" vertex="1" connectable="0" parent="1">
          <mxGeometry x="785" y="178" width="60" height="30" as="geometry" />
        </mxCell>
        <mxCell id="p8GK5SyPZ3NwdRlFlCjc-162" style="edgeStyle=orthogonalEdgeStyle;rounded=0;orthogonalLoop=1;jettySize=auto;html=1;" edge="1" parent="p8GK5SyPZ3NwdRlFlCjc-70" source="p8GK5SyPZ3NwdRlFlCjc-71">
          <mxGeometry relative="1" as="geometry">
            <mxPoint x="15" y="-59.99999999999977" as="targetPoint" />
          </mxGeometry>
        </mxCell>
        <mxCell id="p8GK5SyPZ3NwdRlFlCjc-71" value="" style="verticalLabelPosition=bottom;shadow=0;dashed=0;align=center;html=1;verticalAlign=top;shape=mxgraph.electrical.radio.electret_microphone;rotation=-90;" vertex="1" parent="p8GK5SyPZ3NwdRlFlCjc-70">
          <mxGeometry width="30" height="30" as="geometry" />
        </mxCell>
        <mxCell id="p8GK5SyPZ3NwdRlFlCjc-161" style="edgeStyle=orthogonalEdgeStyle;rounded=0;orthogonalLoop=1;jettySize=auto;html=1;" edge="1" parent="p8GK5SyPZ3NwdRlFlCjc-70" source="p8GK5SyPZ3NwdRlFlCjc-72">
          <mxGeometry relative="1" as="geometry">
            <mxPoint x="45" y="-60" as="targetPoint" />
          </mxGeometry>
        </mxCell>
        <mxCell id="p8GK5SyPZ3NwdRlFlCjc-72" value="" style="verticalLabelPosition=bottom;shadow=0;dashed=0;align=center;html=1;verticalAlign=top;shape=mxgraph.electrical.radio.electret_microphone;rotation=-90;" vertex="1" parent="p8GK5SyPZ3NwdRlFlCjc-70">
          <mxGeometry x="30" width="30" height="30" as="geometry" />
        </mxCell>
        <mxCell id="p8GK5SyPZ3NwdRlFlCjc-73" value="&lt;div&gt;엘리베이터 마이크&lt;/div&gt;E.mic 1,2" style="text;html=1;align=center;verticalAlign=middle;whiteSpace=wrap;rounded=0;fillColor=#0050ef;fontColor=#ffffff;strokeColor=#001DBC;" vertex="1" parent="1">
          <mxGeometry y="209" width="105" height="30" as="geometry" />
        </mxCell>
        <mxCell id="p8GK5SyPZ3NwdRlFlCjc-75" value="&lt;div&gt;엘리베이터 마이크&lt;/div&gt;E.mic 3, 4" style="text;html=1;align=center;verticalAlign=middle;whiteSpace=wrap;rounded=0;fillColor=#0050ef;fontColor=#ffffff;strokeColor=#001DBC;" vertex="1" parent="1">
          <mxGeometry x="745" y="208" width="105" height="30" as="geometry" />
        </mxCell>
        <mxCell id="p8GK5SyPZ3NwdRlFlCjc-79" value="" style="group" vertex="1" connectable="0" parent="1">
          <mxGeometry x="930" y="340" width="35" height="70" as="geometry" />
        </mxCell>
        <mxCell id="p8GK5SyPZ3NwdRlFlCjc-76" value="" style="verticalLabelPosition=bottom;shadow=0;dashed=0;align=center;html=1;verticalAlign=top;shape=mxgraph.electrical.radio.electret_microphone;rotation=-180;" vertex="1" parent="p8GK5SyPZ3NwdRlFlCjc-79">
          <mxGeometry y="35" width="35" height="35" as="geometry" />
        </mxCell>
        <mxCell id="p8GK5SyPZ3NwdRlFlCjc-78" value="" style="verticalLabelPosition=bottom;shadow=0;dashed=0;align=center;html=1;verticalAlign=top;shape=mxgraph.electrical.radio.electret_microphone;rotation=-180;" vertex="1" parent="p8GK5SyPZ3NwdRlFlCjc-79">
          <mxGeometry width="35" height="35" as="geometry" />
        </mxCell>
        <mxCell id="p8GK5SyPZ3NwdRlFlCjc-81" value="R3&lt;br&gt;컨덴서 마이크" style="verticalLabelPosition=bottom;shadow=0;dashed=0;align=center;html=1;verticalAlign=top;shape=mxgraph.electrical.radio.electret_microphone;rotation=-90;" vertex="1" parent="1">
          <mxGeometry x="727.5" y="420" width="35" height="35" as="geometry" />
        </mxCell>
        <mxCell id="p8GK5SyPZ3NwdRlFlCjc-86" value="R2, R4&lt;div&gt;특송/성가대 마이크&lt;/div&gt;" style="text;html=1;align=center;verticalAlign=middle;whiteSpace=wrap;rounded=0;fillColor=#b1ddf0;strokeColor=#10739e;" vertex="1" parent="1">
          <mxGeometry x="892.5" y="420" width="110" height="46.25" as="geometry" />
        </mxCell>
        <mxCell id="p8GK5SyPZ3NwdRlFlCjc-87" value="" style="group" vertex="1" connectable="0" parent="1">
          <mxGeometry x="1100" y="330" width="60" height="30" as="geometry" />
        </mxCell>
        <mxCell id="p8GK5SyPZ3NwdRlFlCjc-184" style="edgeStyle=orthogonalEdgeStyle;rounded=0;orthogonalLoop=1;jettySize=auto;html=1;" edge="1" parent="p8GK5SyPZ3NwdRlFlCjc-87" source="p8GK5SyPZ3NwdRlFlCjc-88">
          <mxGeometry relative="1" as="geometry">
            <mxPoint x="15" y="-40" as="targetPoint" />
          </mxGeometry>
        </mxCell>
        <mxCell id="p8GK5SyPZ3NwdRlFlCjc-88" value="" style="verticalLabelPosition=bottom;shadow=0;dashed=0;align=center;html=1;verticalAlign=top;shape=mxgraph.electrical.radio.electret_microphone;rotation=-90;" vertex="1" parent="p8GK5SyPZ3NwdRlFlCjc-87">
          <mxGeometry width="30" height="30" as="geometry" />
        </mxCell>
        <mxCell id="p8GK5SyPZ3NwdRlFlCjc-183" style="edgeStyle=orthogonalEdgeStyle;rounded=0;orthogonalLoop=1;jettySize=auto;html=1;" edge="1" parent="p8GK5SyPZ3NwdRlFlCjc-87" source="p8GK5SyPZ3NwdRlFlCjc-89">
          <mxGeometry relative="1" as="geometry">
            <mxPoint x="45" y="-40" as="targetPoint" />
          </mxGeometry>
        </mxCell>
        <mxCell id="p8GK5SyPZ3NwdRlFlCjc-89" value="" style="verticalLabelPosition=bottom;shadow=0;dashed=0;align=center;html=1;verticalAlign=top;shape=mxgraph.electrical.radio.electret_microphone;rotation=-90;" vertex="1" parent="p8GK5SyPZ3NwdRlFlCjc-87">
          <mxGeometry x="30" width="30" height="30" as="geometry" />
        </mxCell>
        <mxCell id="p8GK5SyPZ3NwdRlFlCjc-90" value="" style="group" vertex="1" connectable="0" parent="1">
          <mxGeometry x="1160" y="370" width="60" height="30" as="geometry" />
        </mxCell>
        <mxCell id="p8GK5SyPZ3NwdRlFlCjc-185" style="edgeStyle=orthogonalEdgeStyle;rounded=0;orthogonalLoop=1;jettySize=auto;html=1;" edge="1" parent="p8GK5SyPZ3NwdRlFlCjc-90" source="p8GK5SyPZ3NwdRlFlCjc-91">
          <mxGeometry relative="1" as="geometry">
            <mxPoint x="15" y="-80" as="targetPoint" />
          </mxGeometry>
        </mxCell>
        <mxCell id="p8GK5SyPZ3NwdRlFlCjc-91" value="" style="verticalLabelPosition=bottom;shadow=0;dashed=0;align=center;html=1;verticalAlign=top;shape=mxgraph.electrical.radio.electret_microphone;rotation=-90;" vertex="1" parent="p8GK5SyPZ3NwdRlFlCjc-90">
          <mxGeometry width="30" height="30" as="geometry" />
        </mxCell>
        <mxCell id="p8GK5SyPZ3NwdRlFlCjc-92" value="" style="verticalLabelPosition=bottom;shadow=0;dashed=0;align=center;html=1;verticalAlign=top;shape=mxgraph.electrical.radio.electret_microphone;rotation=-90;" vertex="1" parent="p8GK5SyPZ3NwdRlFlCjc-90">
          <mxGeometry x="30" width="30" height="30" as="geometry" />
        </mxCell>
        <mxCell id="p8GK5SyPZ3NwdRlFlCjc-93" value="Choir 1, 2, 3, 4&lt;div&gt;성가대 마이크&lt;/div&gt;" style="text;html=1;align=center;verticalAlign=middle;whiteSpace=wrap;rounded=0;fillColor=#b1ddf0;strokeColor=#10739e;" vertex="1" parent="1">
          <mxGeometry x="1110" y="410" width="90" height="30" as="geometry" />
        </mxCell>
        <mxCell id="p8GK5SyPZ3NwdRlFlCjc-84" style="edgeStyle=orthogonalEdgeStyle;rounded=0;orthogonalLoop=1;jettySize=auto;html=1;exitX=1;exitY=0.5;exitDx=0;exitDy=0;exitPerimeter=0;" edge="1" parent="1" source="p8GK5SyPZ3NwdRlFlCjc-78" target="p8GK5SyPZ3NwdRlFlCjc-35">
          <mxGeometry relative="1" as="geometry">
            <Array as="points">
              <mxPoint x="715" y="357" />
            </Array>
          </mxGeometry>
        </mxCell>
        <mxCell id="p8GK5SyPZ3NwdRlFlCjc-85" style="edgeStyle=orthogonalEdgeStyle;rounded=0;orthogonalLoop=1;jettySize=auto;html=1;exitX=1;exitY=0.5;exitDx=0;exitDy=0;exitPerimeter=0;" edge="1" parent="1" source="p8GK5SyPZ3NwdRlFlCjc-76" target="p8GK5SyPZ3NwdRlFlCjc-40">
          <mxGeometry relative="1" as="geometry">
            <Array as="points">
              <mxPoint x="775" y="393" />
            </Array>
          </mxGeometry>
        </mxCell>
        <mxCell id="p8GK5SyPZ3NwdRlFlCjc-95" value="4F Delay" style="pointerEvents=1;verticalLabelPosition=bottom;shadow=0;dashed=0;align=center;html=1;verticalAlign=top;shape=mxgraph.electrical.electro-mechanical.loudspeaker;rotation=90;" vertex="1" parent="1">
          <mxGeometry x="74.28533783783784" y="617" width="14.285641891891892" height="28.57142857142857" as="geometry" />
        </mxCell>
        <mxCell id="p8GK5SyPZ3NwdRlFlCjc-99" value="5F Delay" style="pointerEvents=1;verticalLabelPosition=bottom;shadow=0;dashed=0;align=center;html=1;verticalAlign=top;shape=mxgraph.electrical.electro-mechanical.loudspeaker;rotation=90;" vertex="1" parent="1">
          <mxGeometry x="74.28533783783784" y="679.8571428571429" width="14.285641891891892" height="28.57142857142857" as="geometry" />
        </mxCell>
        <mxCell id="p8GK5SyPZ3NwdRlFlCjc-104" value="5F Delay" style="pointerEvents=1;verticalLabelPosition=bottom;shadow=0;dashed=0;align=center;html=1;verticalAlign=top;shape=mxgraph.electrical.electro-mechanical.loudspeaker;rotation=90;" vertex="1" parent="1">
          <mxGeometry x="258.56533783783783" y="682.7171428571429" width="14.285641891891892" height="28.57142857142857" as="geometry" />
        </mxCell>
        <mxCell id="p8GK5SyPZ3NwdRlFlCjc-105" value="5F Delay" style="pointerEvents=1;verticalLabelPosition=bottom;shadow=0;dashed=0;align=center;html=1;verticalAlign=top;shape=mxgraph.electrical.electro-mechanical.loudspeaker;rotation=90;" vertex="1" parent="1">
          <mxGeometry x="570.0053378378378" y="679.8571428571429" width="14.285641891891892" height="28.57142857142857" as="geometry" />
        </mxCell>
        <mxCell id="p8GK5SyPZ3NwdRlFlCjc-106" value="5F Delay" style="pointerEvents=1;verticalLabelPosition=bottom;shadow=0;dashed=0;align=center;html=1;verticalAlign=top;shape=mxgraph.electrical.electro-mechanical.loudspeaker;rotation=90;" vertex="1" parent="1">
          <mxGeometry x="754.2853378378379" y="682.7171428571429" width="14.285641891891892" height="28.57142857142857" as="geometry" />
        </mxCell>
        <mxCell id="p8GK5SyPZ3NwdRlFlCjc-107" value="4F Delay" style="pointerEvents=1;verticalLabelPosition=bottom;shadow=0;dashed=0;align=center;html=1;verticalAlign=top;shape=mxgraph.electrical.electro-mechanical.loudspeaker;rotation=90;" vertex="1" parent="1">
          <mxGeometry x="258.56533783783783" y="617" width="14.285641891891892" height="28.57142857142857" as="geometry" />
        </mxCell>
        <mxCell id="p8GK5SyPZ3NwdRlFlCjc-108" value="4F Delay" style="pointerEvents=1;verticalLabelPosition=bottom;shadow=0;dashed=0;align=center;html=1;verticalAlign=top;shape=mxgraph.electrical.electro-mechanical.loudspeaker;rotation=90;" vertex="1" parent="1">
          <mxGeometry x="570.0053378378378" y="617" width="14.285641891891892" height="28.57142857142857" as="geometry" />
        </mxCell>
        <mxCell id="p8GK5SyPZ3NwdRlFlCjc-109" value="4F Delay" style="pointerEvents=1;verticalLabelPosition=bottom;shadow=0;dashed=0;align=center;html=1;verticalAlign=top;shape=mxgraph.electrical.electro-mechanical.loudspeaker;rotation=90;" vertex="1" parent="1">
          <mxGeometry x="754.2853378378378" y="617" width="14.285641891891892" height="28.57142857142857" as="geometry" />
        </mxCell>
        <mxCell id="p8GK5SyPZ3NwdRlFlCjc-113" value="" style="group" vertex="1" connectable="0" parent="1">
          <mxGeometry x="190.00000000000003" y="290" width="60" height="57.5" as="geometry" />
        </mxCell>
        <mxCell id="p8GK5SyPZ3NwdRlFlCjc-110" value="" style="pointerEvents=1;verticalLabelPosition=bottom;shadow=0;dashed=0;align=center;html=1;verticalAlign=top;shape=mxgraph.electrical.electro-mechanical.loudspeaker;rotation=90;" vertex="1" parent="p8GK5SyPZ3NwdRlFlCjc-113">
          <mxGeometry x="17.149999999999977" y="-12.5" width="25" height="50" as="geometry" />
        </mxCell>
        <mxCell id="p8GK5SyPZ3NwdRlFlCjc-111" value="프론트&lt;div&gt;스피커&lt;/div&gt;" style="text;html=1;align=center;verticalAlign=middle;whiteSpace=wrap;rounded=0;" vertex="1" parent="p8GK5SyPZ3NwdRlFlCjc-113">
          <mxGeometry y="27.5" width="60" height="30" as="geometry" />
        </mxCell>
        <mxCell id="p8GK5SyPZ3NwdRlFlCjc-114" value="" style="group" vertex="1" connectable="0" parent="1">
          <mxGeometry x="609" y="290" width="60" height="57.5" as="geometry" />
        </mxCell>
        <mxCell id="p8GK5SyPZ3NwdRlFlCjc-115" value="" style="pointerEvents=1;verticalLabelPosition=bottom;shadow=0;dashed=0;align=center;html=1;verticalAlign=top;shape=mxgraph.electrical.electro-mechanical.loudspeaker;rotation=90;" vertex="1" parent="p8GK5SyPZ3NwdRlFlCjc-114">
          <mxGeometry x="17.149999999999977" y="-12.5" width="25" height="50" as="geometry" />
        </mxCell>
        <mxCell id="p8GK5SyPZ3NwdRlFlCjc-116" value="프론트&lt;div&gt;스피커&lt;/div&gt;" style="text;html=1;align=center;verticalAlign=middle;whiteSpace=wrap;rounded=0;" vertex="1" parent="p8GK5SyPZ3NwdRlFlCjc-114">
          <mxGeometry y="27.5" width="60" height="30" as="geometry" />
        </mxCell>
        <mxCell id="p8GK5SyPZ3NwdRlFlCjc-121" value="" style="fontColor=#0066CC;verticalAlign=top;verticalLabelPosition=bottom;labelPosition=center;align=center;html=1;outlineConnect=0;fillColor=#CCCCCC;strokeColor=#6881B3;gradientColor=none;gradientDirection=north;strokeWidth=2;shape=mxgraph.networks.patch_panel;rotation=90;points=[[0.02,0.51,0,0,0],[0.02,0.98,0,0,0],[0.27,0,0,0,0],[0.5,0,0,0,0],[0.5,1,0,0,0],[0.73,0,0,0,0],[0.98,0.51,0,0,0],[0.98,0.98,0,0,0]];" vertex="1" parent="1">
          <mxGeometry x="-190" y="35" width="100" height="35" as="geometry" />
        </mxCell>
        <mxCell id="p8GK5SyPZ3NwdRlFlCjc-122" value="" style="verticalLabelPosition=bottom;html=1;verticalAlign=top;align=center;shape=mxgraph.floorplan.piano;" vertex="1" parent="1">
          <mxGeometry x="860" width="135" height="143" as="geometry" />
        </mxCell>
        <mxCell id="p8GK5SyPZ3NwdRlFlCjc-123" value="" style="shape=image;html=1;verticalAlign=top;verticalLabelPosition=bottom;labelBackgroundColor=#ffffff;imageAspect=0;aspect=fixed;image=https://cdn2.iconfinder.com/data/icons/analytic-investment-and-balanced-scorecard/512/406_synth_keyboard_midi_synthesiser_synthesizer_sound_design_producstion-128.png" vertex="1" parent="1">
          <mxGeometry x="-397.5" y="143.07" width="70" height="70" as="geometry" />
        </mxCell>
        <mxCell id="p8GK5SyPZ3NwdRlFlCjc-124" value="" style="shape=image;html=1;verticalAlign=top;verticalLabelPosition=bottom;labelBackgroundColor=#ffffff;imageAspect=0;aspect=fixed;image=https://cdn2.iconfinder.com/data/icons/analytic-investment-and-balanced-scorecard/512/406_synth_keyboard_midi_synthesiser_synthesizer_sound_design_producstion-128.png" vertex="1" parent="1">
          <mxGeometry x="-100" width="100.07" height="100.07" as="geometry" />
        </mxCell>
        <mxCell id="p8GK5SyPZ3NwdRlFlCjc-126" value="" style="shape=image;html=1;verticalAlign=top;verticalLabelPosition=bottom;labelBackgroundColor=#ffffff;imageAspect=0;aspect=fixed;image=https://cdn2.iconfinder.com/data/icons/analytic-investment-and-balanced-scorecard/512/408_drum_drums_instrument_kit_musical_sound_design_producstion-128.png" vertex="1" parent="1">
          <mxGeometry x="-350" y="15" width="128" height="128" as="geometry" />
        </mxCell>
        <mxCell id="p8GK5SyPZ3NwdRlFlCjc-127" value="" style="group" vertex="1" connectable="0" parent="1">
          <mxGeometry x="900" y="80" width="40" height="20" as="geometry" />
        </mxCell>
        <mxCell id="p8GK5SyPZ3NwdRlFlCjc-194" style="edgeStyle=orthogonalEdgeStyle;rounded=0;orthogonalLoop=1;jettySize=auto;html=1;exitX=1;exitY=0.5;exitDx=0;exitDy=0;exitPerimeter=0;" edge="1" parent="p8GK5SyPZ3NwdRlFlCjc-127" source="p8GK5SyPZ3NwdRlFlCjc-128">
          <mxGeometry relative="1" as="geometry">
            <mxPoint x="30" y="-79.99999999999977" as="targetPoint" />
            <Array as="points">
              <mxPoint x="10" y="-20" />
              <mxPoint x="31" y="-20" />
              <mxPoint x="31" y="-80" />
            </Array>
          </mxGeometry>
        </mxCell>
        <mxCell id="p8GK5SyPZ3NwdRlFlCjc-128" value="" style="verticalLabelPosition=bottom;shadow=0;dashed=0;align=center;html=1;verticalAlign=top;shape=mxgraph.electrical.radio.electret_microphone;rotation=-90;" vertex="1" parent="p8GK5SyPZ3NwdRlFlCjc-127">
          <mxGeometry width="20" height="20" as="geometry" />
        </mxCell>
        <mxCell id="p8GK5SyPZ3NwdRlFlCjc-193" style="edgeStyle=orthogonalEdgeStyle;rounded=0;orthogonalLoop=1;jettySize=auto;html=1;exitX=1;exitY=0.5;exitDx=0;exitDy=0;exitPerimeter=0;" edge="1" parent="p8GK5SyPZ3NwdRlFlCjc-127" source="p8GK5SyPZ3NwdRlFlCjc-129">
          <mxGeometry relative="1" as="geometry">
            <mxPoint x="29.5" y="-79.99999999999977" as="targetPoint" />
          </mxGeometry>
        </mxCell>
        <mxCell id="p8GK5SyPZ3NwdRlFlCjc-129" value="" style="verticalLabelPosition=bottom;shadow=0;dashed=0;align=center;html=1;verticalAlign=top;shape=mxgraph.electrical.radio.electret_microphone;rotation=-90;" vertex="1" parent="p8GK5SyPZ3NwdRlFlCjc-127">
          <mxGeometry x="20" width="20" height="20" as="geometry" />
        </mxCell>
        <mxCell id="p8GK5SyPZ3NwdRlFlCjc-130" value="" style="shape=image;html=1;verticalAlign=top;verticalLabelPosition=bottom;labelBackgroundColor=#ffffff;imageAspect=0;aspect=fixed;image=https://cdn0.iconfinder.com/data/icons/ie_Bright/128/guitar.png" vertex="1" parent="1">
          <mxGeometry x="-530" y="30" width="55" height="55" as="geometry" />
        </mxCell>
        <mxCell id="p8GK5SyPZ3NwdRlFlCjc-131" value="" style="shape=image;html=1;verticalAlign=top;verticalLabelPosition=bottom;labelBackgroundColor=#ffffff;imageAspect=0;aspect=fixed;image=https://cdn0.iconfinder.com/data/icons/icons-unleashed-vol1/128/-guitar.png" vertex="1" parent="1">
          <mxGeometry x="-454" y="35" width="58" height="58" as="geometry" />
        </mxCell>
        <mxCell id="p8GK5SyPZ3NwdRlFlCjc-133" value="EG&lt;div&gt;일렉 기타&lt;/div&gt;" style="text;html=1;align=center;verticalAlign=middle;whiteSpace=wrap;rounded=0;fillColor=#bac8d3;strokeColor=#23445d;" vertex="1" parent="1">
          <mxGeometry x="-560" y="100.07" width="75" height="39.93" as="geometry" />
        </mxCell>
        <mxCell id="p8GK5SyPZ3NwdRlFlCjc-135" value="BG&lt;div&gt;베이스 기타&lt;/div&gt;" style="text;html=1;align=center;verticalAlign=middle;whiteSpace=wrap;rounded=0;fillColor=#b1ddf0;strokeColor=#10739e;" vertex="1" parent="1">
          <mxGeometry x="-462" y="100.07" width="75" height="39.93" as="geometry" />
        </mxCell>
        <mxCell id="p8GK5SyPZ3NwdRlFlCjc-136" value="&lt;div&gt;KEY 1, 2&lt;/div&gt;&lt;div&gt;메인 건반&lt;/div&gt;" style="text;html=1;align=center;verticalAlign=middle;whiteSpace=wrap;rounded=0;fillColor=#fad7ac;strokeColor=#b46504;" vertex="1" parent="1">
          <mxGeometry x="-400" y="220.07" width="75" height="39.93" as="geometry" />
        </mxCell>
        <mxCell id="p8GK5SyPZ3NwdRlFlCjc-137" value="" style="pointerEvents=1;verticalLabelPosition=bottom;shadow=0;dashed=0;align=center;html=1;verticalAlign=top;shape=mxgraph.electrical.electro-mechanical.loudspeaker;rotation=-180;" vertex="1" parent="1">
          <mxGeometry x="-62.45999999999997" y="143" width="25" height="50" as="geometry" />
        </mxCell>
        <mxCell id="p8GK5SyPZ3NwdRlFlCjc-138" value="사이드 스피커&lt;div&gt;Side R&lt;/div&gt;" style="pointerEvents=1;verticalLabelPosition=bottom;shadow=0;dashed=0;align=center;html=1;verticalAlign=top;shape=mxgraph.electrical.electro-mechanical.loudspeaker;rotation=0;" vertex="1" parent="1">
          <mxGeometry x="892.5000000000001" y="170" width="25" height="50" as="geometry" />
        </mxCell>
        <mxCell id="p8GK5SyPZ3NwdRlFlCjc-139" value="사이드 스피커&lt;div&gt;Side L&lt;/div&gt;" style="text;html=1;align=center;verticalAlign=middle;whiteSpace=wrap;rounded=0;" vertex="1" parent="1">
          <mxGeometry x="-90" y="200" width="80" height="30" as="geometry" />
        </mxCell>
        <mxCell id="p8GK5SyPZ3NwdRlFlCjc-140" value="&lt;div&gt;Organ 1, 2&lt;/div&gt;&lt;div&gt;오르간&lt;/div&gt;" style="text;html=1;align=center;verticalAlign=middle;whiteSpace=wrap;rounded=0;fillColor=#fad7ac;strokeColor=#b46504;" vertex="1" parent="1">
          <mxGeometry x="-90" y="93" width="75" height="39.93" as="geometry" />
        </mxCell>
        <mxCell id="p8GK5SyPZ3NwdRlFlCjc-141" value="오르간 스피커" style="pointerEvents=1;verticalLabelPosition=bottom;shadow=0;dashed=0;align=center;html=1;verticalAlign=top;shape=mxgraph.electrical.electro-mechanical.loudspeaker;rotation=0;" vertex="1" parent="1">
          <mxGeometry x="-640" y="160" width="42.5" height="80" as="geometry" />
        </mxCell>
        <mxCell id="p8GK5SyPZ3NwdRlFlCjc-145" value="BG -&amp;gt; SLink 11" style="edgeStyle=orthogonalEdgeStyle;rounded=0;orthogonalLoop=1;jettySize=auto;html=1;exitX=0;exitY=0.5;exitDx=0;exitDy=0;entryX=0.02;entryY=0.98;entryDx=0;entryDy=0;entryPerimeter=0;" edge="1" parent="1" source="p8GK5SyPZ3NwdRlFlCjc-135" target="p8GK5SyPZ3NwdRlFlCjc-121">
          <mxGeometry x="0.6822" relative="1" as="geometry">
            <mxPoint as="offset" />
          </mxGeometry>
        </mxCell>
        <mxCell id="p8GK5SyPZ3NwdRlFlCjc-146" value="드럼" style="text;html=1;align=center;verticalAlign=middle;whiteSpace=wrap;rounded=0;fillColor=#0050ef;strokeColor=#001DBC;fontColor=#ffffff;" vertex="1" parent="1">
          <mxGeometry x="-323.5" y="120.07000000000001" width="75" height="39.93" as="geometry" />
        </mxCell>
        <mxCell id="p8GK5SyPZ3NwdRlFlCjc-149" value="EG, Ip39 -&amp;gt; SLink 12, 20" style="edgeStyle=orthogonalEdgeStyle;rounded=0;orthogonalLoop=1;jettySize=auto;html=1;exitX=0;exitY=0.5;exitDx=0;exitDy=0;entryX=0.25;entryY=1.014;entryDx=0;entryDy=0;entryPerimeter=0;" edge="1" parent="1" source="p8GK5SyPZ3NwdRlFlCjc-133" target="p8GK5SyPZ3NwdRlFlCjc-121">
          <mxGeometry x="0.6931" relative="1" as="geometry">
            <mxPoint as="offset" />
          </mxGeometry>
        </mxCell>
        <mxCell id="p8GK5SyPZ3NwdRlFlCjc-150" value="SLink 1-8" style="edgeStyle=orthogonalEdgeStyle;rounded=0;orthogonalLoop=1;jettySize=auto;html=1;exitX=1;exitY=0.5;exitDx=0;exitDy=0;entryX=0.5;entryY=1;entryDx=0;entryDy=0;entryPerimeter=0;" edge="1" parent="1" source="p8GK5SyPZ3NwdRlFlCjc-146" target="p8GK5SyPZ3NwdRlFlCjc-121">
          <mxGeometry relative="1" as="geometry" />
        </mxCell>
        <mxCell id="p8GK5SyPZ3NwdRlFlCjc-151" value="KEY 1, 2 -&amp;gt; SLink 9, 10" style="edgeStyle=orthogonalEdgeStyle;rounded=0;orthogonalLoop=1;jettySize=auto;html=1;exitX=1;exitY=0.5;exitDx=0;exitDy=0;entryX=0.79;entryY=1.1;entryDx=0;entryDy=0;entryPerimeter=0;" edge="1" parent="1" source="p8GK5SyPZ3NwdRlFlCjc-136" target="p8GK5SyPZ3NwdRlFlCjc-121">
          <mxGeometry x="-0.5349" relative="1" as="geometry">
            <Array as="points">
              <mxPoint x="-170" y="240" />
              <mxPoint x="-170" y="82" />
            </Array>
            <mxPoint as="offset" />
          </mxGeometry>
        </mxCell>
        <mxCell id="p8GK5SyPZ3NwdRlFlCjc-153" style="edgeStyle=orthogonalEdgeStyle;rounded=0;orthogonalLoop=1;jettySize=auto;html=1;exitX=0;exitY=0.75;exitDx=0;exitDy=0;entryX=0.98;entryY=0.98;entryDx=0;entryDy=0;entryPerimeter=0;" edge="1" parent="1" source="p8GK5SyPZ3NwdRlFlCjc-140" target="p8GK5SyPZ3NwdRlFlCjc-121">
          <mxGeometry relative="1" as="geometry" />
        </mxCell>
        <mxCell id="p8GK5SyPZ3NwdRlFlCjc-154" value="SLink 23, 24" style="edgeLabel;html=1;align=center;verticalAlign=middle;resizable=0;points=[];" vertex="1" connectable="0" parent="p8GK5SyPZ3NwdRlFlCjc-153">
          <mxGeometry x="-0.0873" y="-2" relative="1" as="geometry">
            <mxPoint x="30" y="-1" as="offset" />
          </mxGeometry>
        </mxCell>
        <mxCell id="p8GK5SyPZ3NwdRlFlCjc-159" value="Local&lt;div&gt;13, 14, 15, 16&lt;/div&gt;" style="text;html=1;align=center;verticalAlign=middle;whiteSpace=wrap;rounded=0;" vertex="1" parent="1">
          <mxGeometry x="2.5" y="89" width="85" height="30" as="geometry" />
        </mxCell>
        <mxCell id="p8GK5SyPZ3NwdRlFlCjc-160" value="Local&lt;div&gt;13, 14, 15, 16&lt;/div&gt;" style="text;html=1;align=center;verticalAlign=middle;whiteSpace=wrap;rounded=0;" vertex="1" parent="1">
          <mxGeometry x="765" y="88" width="85" height="30" as="geometry" />
        </mxCell>
        <mxCell id="p8GK5SyPZ3NwdRlFlCjc-163" value="Local&lt;div&gt;17, 18, 19, 20&lt;/div&gt;" style="text;html=1;align=center;verticalAlign=middle;whiteSpace=wrap;rounded=0;" vertex="1" parent="1">
          <mxGeometry x="85" y="250" width="80" height="30" as="geometry" />
        </mxCell>
        <mxCell id="p8GK5SyPZ3NwdRlFlCjc-164" value="Local&lt;div&gt;21, 22, 23, 24&lt;/div&gt;" style="text;html=1;align=center;verticalAlign=middle;whiteSpace=wrap;rounded=0;" vertex="1" parent="1">
          <mxGeometry x="695" y="250" width="80" height="30" as="geometry" />
        </mxCell>
        <mxCell id="p8GK5SyPZ3NwdRlFlCjc-181" style="edgeStyle=orthogonalEdgeStyle;rounded=0;orthogonalLoop=1;jettySize=auto;html=1;exitX=1;exitY=0.5;exitDx=0;exitDy=0;exitPerimeter=0;" edge="1" parent="1" source="p8GK5SyPZ3NwdRlFlCjc-167">
          <mxGeometry relative="1" as="geometry">
            <mxPoint x="264.5" y="510" as="targetPoint" />
          </mxGeometry>
        </mxCell>
        <mxCell id="p8GK5SyPZ3NwdRlFlCjc-167" value="" style="verticalLabelPosition=bottom;shadow=0;dashed=0;align=center;html=1;verticalAlign=top;shape=mxgraph.electrical.radio.electret_microphone;rotation=-90;" vertex="1" parent="1">
          <mxGeometry x="249.27999999999997" y="530" width="30" height="30" as="geometry" />
        </mxCell>
        <mxCell id="p8GK5SyPZ3NwdRlFlCjc-182" style="edgeStyle=orthogonalEdgeStyle;rounded=0;orthogonalLoop=1;jettySize=auto;html=1;exitX=1;exitY=0.5;exitDx=0;exitDy=0;exitPerimeter=0;" edge="1" parent="1" source="p8GK5SyPZ3NwdRlFlCjc-169">
          <mxGeometry relative="1" as="geometry">
            <mxPoint x="79.5" y="510" as="targetPoint" />
          </mxGeometry>
        </mxCell>
        <mxCell id="p8GK5SyPZ3NwdRlFlCjc-169" value="" style="verticalLabelPosition=bottom;shadow=0;dashed=0;align=center;html=1;verticalAlign=top;shape=mxgraph.electrical.radio.electret_microphone;rotation=-90;" vertex="1" parent="1">
          <mxGeometry x="65" y="530" width="30" height="30" as="geometry" />
        </mxCell>
        <mxCell id="p8GK5SyPZ3NwdRlFlCjc-170" value="" style="verticalLabelPosition=bottom;shadow=0;dashed=0;align=center;html=1;verticalAlign=top;shape=mxgraph.electrical.radio.electret_microphone;rotation=-90;" vertex="1" parent="1">
          <mxGeometry x="737.14" y="530" width="30" height="30" as="geometry" />
        </mxCell>
        <mxCell id="p8GK5SyPZ3NwdRlFlCjc-180" style="edgeStyle=orthogonalEdgeStyle;rounded=0;orthogonalLoop=1;jettySize=auto;html=1;exitX=1;exitY=0.5;exitDx=0;exitDy=0;exitPerimeter=0;" edge="1" parent="1" source="p8GK5SyPZ3NwdRlFlCjc-171">
          <mxGeometry relative="1" as="geometry">
            <mxPoint x="575.75" y="510" as="targetPoint" />
          </mxGeometry>
        </mxCell>
        <mxCell id="p8GK5SyPZ3NwdRlFlCjc-171" value="" style="verticalLabelPosition=bottom;shadow=0;dashed=0;align=center;html=1;verticalAlign=top;shape=mxgraph.electrical.radio.electret_microphone;rotation=-90;" vertex="1" parent="1">
          <mxGeometry x="560.72" y="530" width="30" height="30" as="geometry" />
        </mxCell>
        <mxCell id="p8GK5SyPZ3NwdRlFlCjc-172" value="발코니 마이크&lt;div&gt;AB1&lt;/div&gt;" style="text;html=1;align=center;verticalAlign=middle;whiteSpace=wrap;rounded=0;fillColor=#0050ef;fontColor=#ffffff;strokeColor=#001DBC;" vertex="1" parent="1">
          <mxGeometry x="40" y="570" width="80" height="30" as="geometry" />
        </mxCell>
        <mxCell id="p8GK5SyPZ3NwdRlFlCjc-173" value="발코니 마이크&lt;div&gt;AB2&lt;/div&gt;" style="text;html=1;align=center;verticalAlign=middle;whiteSpace=wrap;rounded=0;fillColor=#0050ef;fontColor=#ffffff;strokeColor=#001DBC;" vertex="1" parent="1">
          <mxGeometry x="225.71" y="570" width="80" height="30" as="geometry" />
        </mxCell>
        <mxCell id="p8GK5SyPZ3NwdRlFlCjc-176" value="발코니 마이크&lt;div&gt;AB3&lt;/div&gt;" style="text;html=1;align=center;verticalAlign=middle;whiteSpace=wrap;rounded=0;fillColor=#0050ef;fontColor=#ffffff;strokeColor=#001DBC;" vertex="1" parent="1">
          <mxGeometry x="535.72" y="570" width="80" height="30" as="geometry" />
        </mxCell>
        <mxCell id="p8GK5SyPZ3NwdRlFlCjc-177" value="발코니 마이크&lt;div&gt;AB4&lt;/div&gt;" style="text;html=1;align=center;verticalAlign=middle;whiteSpace=wrap;rounded=0;fillColor=#0050ef;fontColor=#ffffff;strokeColor=#001DBC;" vertex="1" parent="1">
          <mxGeometry x="712.14" y="570" width="80" height="30" as="geometry" />
        </mxCell>
        <mxCell id="p8GK5SyPZ3NwdRlFlCjc-178" value="&amp;nbsp;AB1, 2, 3, 4 -&amp;gt; SLink 13, 14, 15, 16" style="edgeStyle=orthogonalEdgeStyle;rounded=0;orthogonalLoop=1;jettySize=auto;html=1;entryX=0.98;entryY=0.98;entryDx=0;entryDy=0;entryPerimeter=0;" edge="1" parent="1" source="p8GK5SyPZ3NwdRlFlCjc-170" target="p8GK5SyPZ3NwdRlFlCjc-121">
          <mxGeometry x="0.7318" relative="1" as="geometry">
            <mxPoint x="-140" y="140" as="targetPoint" />
            <Array as="points">
              <mxPoint x="752" y="510" />
              <mxPoint x="-157" y="510" />
            </Array>
            <mxPoint as="offset" />
          </mxGeometry>
        </mxCell>
        <mxCell id="p8GK5SyPZ3NwdRlFlCjc-187" value="Local&lt;div&gt;4, 5, 6, 7&lt;/div&gt;" style="text;html=1;align=center;verticalAlign=middle;whiteSpace=wrap;rounded=0;" vertex="1" parent="1">
          <mxGeometry x="1135" y="238" width="65" height="40" as="geometry" />
        </mxCell>
        <mxCell id="p8GK5SyPZ3NwdRlFlCjc-186" style="edgeStyle=orthogonalEdgeStyle;rounded=0;orthogonalLoop=1;jettySize=auto;html=1;" edge="1" parent="1" source="p8GK5SyPZ3NwdRlFlCjc-92">
          <mxGeometry relative="1" as="geometry">
            <mxPoint x="1205" y="290" as="targetPoint" />
          </mxGeometry>
        </mxCell>
        <mxCell id="p8GK5SyPZ3NwdRlFlCjc-188" value="Local&lt;div&gt;1, 2&lt;/div&gt;" style="text;html=1;align=center;verticalAlign=middle;whiteSpace=wrap;rounded=0;" vertex="1" parent="1">
          <mxGeometry x="392.36" y="179" width="65" height="40" as="geometry" />
        </mxCell>
        <mxCell id="p8GK5SyPZ3NwdRlFlCjc-195" value="Local&lt;div&gt;9, 10&lt;/div&gt;" style="text;html=1;align=center;verticalAlign=middle;whiteSpace=wrap;rounded=0;" vertex="1" parent="1">
          <mxGeometry x="942.5" y="10" width="60" height="30" as="geometry" />
        </mxCell>
        <mxCell id="p8GK5SyPZ3NwdRlFlCjc-196" value="Piano 1, 2&lt;div&gt;그랜드 피아노&lt;/div&gt;" style="text;html=1;align=center;verticalAlign=middle;whiteSpace=wrap;rounded=0;fillColor=#cdeb8b;strokeColor=none;" vertex="1" parent="1">
          <mxGeometry x="875" y="100.07000000000001" width="90" height="30" as="geometry" />
        </mxCell>
        <mxCell id="o8kRR7houGkj13NGa4ze-3" style="edgeStyle=orthogonalEdgeStyle;rounded=0;orthogonalLoop=1;jettySize=auto;html=1;" edge="1" parent="1" source="o8kRR7houGkj13NGa4ze-1" target="o8kRR7houGkj13NGa4ze-4">
          <mxGeometry relative="1" as="geometry">
            <mxPoint x="658.2199999999998" y="387.43" as="targetPoint" />
          </mxGeometry>
        </mxCell>
        <mxCell id="o8kRR7houGkj13NGa4ze-1" value="" style="verticalLabelPosition=bottom;shadow=0;dashed=0;align=center;html=1;verticalAlign=top;shape=mxgraph.electrical.radio.electret_microphone;rotation=-90;" vertex="1" parent="1">
          <mxGeometry x="640.72" y="417.43" width="35" height="35" as="geometry" />
        </mxCell>
        <mxCell id="o8kRR7houGkj13NGa4ze-2" value="W/L&lt;div&gt;무선 마이크&lt;/div&gt;" style="text;html=1;align=center;verticalAlign=middle;whiteSpace=wrap;rounded=0;fillColor=#cdeb8b;strokeColor=none;" vertex="1" parent="1">
          <mxGeometry x="615.72" y="462.43" width="85" height="30" as="geometry" />
        </mxCell>
        <mxCell id="o8kRR7houGkj13NGa4ze-4" value="Local 4" style="text;html=1;align=center;verticalAlign=middle;whiteSpace=wrap;rounded=0;" vertex="1" parent="1">
          <mxGeometry x="628.2199999999998" y="367.43" width="60" height="30" as="geometry" />
        </mxCell>
        <mxCell id="9HhIBZltMOjIROHuBcPf-2" value="" style="pointerEvents=1;verticalLabelPosition=bottom;shadow=0;dashed=0;align=center;html=1;verticalAlign=top;shape=mxgraph.electrical.electro-mechanical.loudspeaker;rotation=-90;" vertex="1" parent="1">
          <mxGeometry x="266.59999999999997" y="367.43" width="25" height="50" as="geometry" />
        </mxCell>
        <mxCell id="9HhIBZltMOjIROHuBcPf-3" value="" style="pointerEvents=1;verticalLabelPosition=bottom;shadow=0;dashed=0;align=center;html=1;verticalAlign=top;shape=mxgraph.electrical.electro-mechanical.loudspeaker;rotation=-90;" vertex="1" parent="1">
          <mxGeometry x="351.59999999999997" y="367.43" width="25" height="50" as="geometry" />
        </mxCell>
        <mxCell id="9HhIBZltMOjIROHuBcPf-4" value="싱어&lt;div&gt;모니터 스피커&lt;/div&gt;" style="text;html=1;align=center;verticalAlign=middle;whiteSpace=wrap;rounded=0;" vertex="1" parent="1">
          <mxGeometry x="325" y="347.5" width="78.21" height="30" as="geometry" />
        </mxCell>
        <mxCell id="9HhIBZltMOjIROHuBcPf-12" value="싱어&lt;div&gt;모니터 스피커&lt;/div&gt;" style="text;html=1;align=center;verticalAlign=middle;whiteSpace=wrap;rounded=0;" vertex="1" parent="1">
          <mxGeometry x="246.78999999999996" y="347.5" width="78.21" height="30" as="geometry" />
        </mxCell>
        <mxCell id="9HhIBZltMOjIROHuBcPf-16" value="" style="pointerEvents=1;verticalLabelPosition=bottom;shadow=0;dashed=0;align=center;html=1;verticalAlign=top;shape=mxgraph.electrical.electro-mechanical.loudspeaker;rotation=-90;" vertex="1" parent="1">
          <mxGeometry x="423.02" y="367.43" width="25" height="50" as="geometry" />
        </mxCell>
        <mxCell id="9HhIBZltMOjIROHuBcPf-17" value="" style="pointerEvents=1;verticalLabelPosition=bottom;shadow=0;dashed=0;align=center;html=1;verticalAlign=top;shape=mxgraph.electrical.electro-mechanical.loudspeaker;rotation=-90;" vertex="1" parent="1">
          <mxGeometry x="508.02" y="367.43" width="25" height="50" as="geometry" />
        </mxCell>
        <mxCell id="9HhIBZltMOjIROHuBcPf-18" value="싱어&lt;div&gt;모니터 스피커&lt;/div&gt;" style="text;html=1;align=center;verticalAlign=middle;whiteSpace=wrap;rounded=0;" vertex="1" parent="1">
          <mxGeometry x="481.41999999999996" y="347.5" width="78.21" height="30" as="geometry" />
        </mxCell>
        <mxCell id="9HhIBZltMOjIROHuBcPf-19" value="싱어&lt;div&gt;모니터 스피커&lt;/div&gt;" style="text;html=1;align=center;verticalAlign=middle;whiteSpace=wrap;rounded=0;" vertex="1" parent="1">
          <mxGeometry x="403.2099999999999" y="347.5" width="78.21" height="30" as="geometry" />
        </mxCell>
      </root>
    </mxGraphModel>
  </diagram>
  <diagram name="본당 출력" id="KivdulWW6vPKZYE4XlHv">
    <mxGraphModel dx="2163" dy="1796" grid="1" gridSize="10" guides="1" tooltips="1" connect="1" arrows="1" fold="1" page="1" pageScale="1" pageWidth="850" pageHeight="1100" math="0" shadow="0">
      <root>
        <mxCell id="FlYiySj4yT9UKmQYEukp-0" />
        <mxCell id="FlYiySj4yT9UKmQYEukp-1" parent="FlYiySj4yT9UKmQYEukp-0" />
        <mxCell id="FlYiySj4yT9UKmQYEukp-2" value="" style="rounded=0;whiteSpace=wrap;html=1;fillColor=none;movable=0;resizable=0;rotatable=0;deletable=0;editable=0;locked=1;connectable=0;" vertex="1" parent="FlYiySj4yT9UKmQYEukp-1">
          <mxGeometry x="2" y="520" width="845.71" height="200" as="geometry" />
        </mxCell>
        <mxCell id="FlYiySj4yT9UKmQYEukp-3" value="" style="rounded=0;whiteSpace=wrap;html=1;fillColor=none;movable=0;resizable=0;rotatable=0;deletable=0;editable=0;locked=1;connectable=0;" vertex="1" parent="FlYiySj4yT9UKmQYEukp-1">
          <mxGeometry width="850" height="280" as="geometry" />
        </mxCell>
        <mxCell id="FlYiySj4yT9UKmQYEukp-4" value="" style="rounded=0;whiteSpace=wrap;html=1;fillColor=none;" vertex="1" parent="FlYiySj4yT9UKmQYEukp-1">
          <mxGeometry x="325" y="80" width="200" height="80" as="geometry" />
        </mxCell>
        <mxCell id="yTDi1r8okf7-M5pfemmc-20" style="edgeStyle=orthogonalEdgeStyle;rounded=0;orthogonalLoop=1;jettySize=auto;html=1;" edge="1" parent="FlYiySj4yT9UKmQYEukp-1" target="FlYiySj4yT9UKmQYEukp-6">
          <mxGeometry relative="1" as="geometry">
            <mxPoint x="260" y="55" as="sourcePoint" />
          </mxGeometry>
        </mxCell>
        <mxCell id="yTDi1r8okf7-M5pfemmc-22" value="Local 1" style="edgeLabel;html=1;align=center;verticalAlign=middle;resizable=0;points=[];" vertex="1" connectable="0" parent="yTDi1r8okf7-M5pfemmc-20">
          <mxGeometry x="-0.0972" relative="1" as="geometry">
            <mxPoint as="offset" />
          </mxGeometry>
        </mxCell>
        <mxCell id="FlYiySj4yT9UKmQYEukp-6" value="" style="pointerEvents=1;verticalLabelPosition=bottom;shadow=0;dashed=0;align=center;html=1;verticalAlign=top;shape=mxgraph.electrical.electro-mechanical.loudspeaker;" vertex="1" parent="FlYiySj4yT9UKmQYEukp-1">
          <mxGeometry x="325" y="30" width="25" height="50" as="geometry" />
        </mxCell>
        <mxCell id="FlYiySj4yT9UKmQYEukp-7" value="" style="pointerEvents=1;verticalLabelPosition=bottom;shadow=0;dashed=0;align=center;html=1;verticalAlign=top;shape=mxgraph.electrical.miscellaneous.plug_socket_connection" vertex="1" parent="FlYiySj4yT9UKmQYEukp-1">
          <mxGeometry x="675" y="280" width="20" height="20" as="geometry" />
        </mxCell>
        <mxCell id="yTDi1r8okf7-M5pfemmc-21" style="edgeStyle=orthogonalEdgeStyle;rounded=0;orthogonalLoop=1;jettySize=auto;html=1;exitX=0;exitY=0.5;exitDx=0;exitDy=0;" edge="1" parent="FlYiySj4yT9UKmQYEukp-1" source="yTDi1r8okf7-M5pfemmc-19" target="FlYiySj4yT9UKmQYEukp-8">
          <mxGeometry relative="1" as="geometry">
            <mxPoint x="570" y="55" as="sourcePoint" />
          </mxGeometry>
        </mxCell>
        <mxCell id="yTDi1r8okf7-M5pfemmc-23" value="Local 1" style="edgeLabel;html=1;align=center;verticalAlign=middle;resizable=0;points=[];" vertex="1" connectable="0" parent="yTDi1r8okf7-M5pfemmc-21">
          <mxGeometry x="-0.2244" y="1" relative="1" as="geometry">
            <mxPoint as="offset" />
          </mxGeometry>
        </mxCell>
        <mxCell id="FlYiySj4yT9UKmQYEukp-8" value="" style="pointerEvents=1;verticalLabelPosition=bottom;shadow=0;dashed=0;align=center;html=1;verticalAlign=top;shape=mxgraph.electrical.electro-mechanical.loudspeaker;rotation=-180;" vertex="1" parent="FlYiySj4yT9UKmQYEukp-1">
          <mxGeometry x="500" y="30" width="25" height="50" as="geometry" />
        </mxCell>
        <mxCell id="yTDi1r8okf7-M5pfemmc-2" style="edgeStyle=orthogonalEdgeStyle;rounded=0;orthogonalLoop=1;jettySize=auto;html=1;" edge="1" parent="FlYiySj4yT9UKmQYEukp-1" target="FlYiySj4yT9UKmQYEukp-13">
          <mxGeometry relative="1" as="geometry">
            <mxPoint x="170" y="130" as="sourcePoint" />
          </mxGeometry>
        </mxCell>
        <mxCell id="yTDi1r8okf7-M5pfemmc-9" value="Local 12" style="edgeLabel;html=1;align=center;verticalAlign=middle;resizable=0;points=[];" vertex="1" connectable="0" parent="yTDi1r8okf7-M5pfemmc-2">
          <mxGeometry x="-0.0924" y="1" relative="1" as="geometry">
            <mxPoint as="offset" />
          </mxGeometry>
        </mxCell>
        <mxCell id="FlYiySj4yT9UKmQYEukp-13" value="" style="pointerEvents=1;verticalLabelPosition=bottom;shadow=0;dashed=0;align=center;html=1;verticalAlign=top;shape=mxgraph.electrical.electro-mechanical.loudspeaker;rotation=90;" vertex="1" parent="FlYiySj4yT9UKmQYEukp-1">
          <mxGeometry x="149" y="180" width="42.5" height="80" as="geometry" />
        </mxCell>
        <mxCell id="FlYiySj4yT9UKmQYEukp-14" value="" style="pointerEvents=1;verticalLabelPosition=bottom;shadow=0;dashed=0;align=center;html=1;verticalAlign=top;shape=mxgraph.electrical.electro-mechanical.loudspeaker;rotation=90;" vertex="1" parent="FlYiySj4yT9UKmQYEukp-1">
          <mxGeometry x="669" y="180" width="42.5" height="80" as="geometry" />
        </mxCell>
        <mxCell id="FlYiySj4yT9UKmQYEukp-15" value="" style="pointerEvents=1;verticalLabelPosition=bottom;shadow=0;dashed=0;align=center;html=1;verticalAlign=top;shape=mxgraph.electrical.miscellaneous.plug_socket_connection" vertex="1" parent="FlYiySj4yT9UKmQYEukp-1">
          <mxGeometry x="705" y="280" width="20" height="20" as="geometry" />
        </mxCell>
        <mxCell id="FlYiySj4yT9UKmQYEukp-17" value="" style="pointerEvents=1;verticalLabelPosition=bottom;shadow=0;dashed=0;align=center;html=1;verticalAlign=top;shape=mxgraph.electrical.miscellaneous.plug_socket_connection" vertex="1" parent="FlYiySj4yT9UKmQYEukp-1">
          <mxGeometry x="735" y="280" width="20" height="20" as="geometry" />
        </mxCell>
        <mxCell id="FlYiySj4yT9UKmQYEukp-18" value="" style="pointerEvents=1;verticalLabelPosition=bottom;shadow=0;dashed=0;align=center;html=1;verticalAlign=top;shape=mxgraph.electrical.miscellaneous.plug_socket_connection" vertex="1" parent="FlYiySj4yT9UKmQYEukp-1">
          <mxGeometry x="765" y="280" width="20" height="20" as="geometry" />
        </mxCell>
        <mxCell id="FlYiySj4yT9UKmQYEukp-19" value="" style="pointerEvents=1;verticalLabelPosition=bottom;shadow=0;dashed=0;align=center;html=1;verticalAlign=top;shape=mxgraph.electrical.miscellaneous.plug_socket_connection" vertex="1" parent="FlYiySj4yT9UKmQYEukp-1">
          <mxGeometry x="65" y="280" width="20" height="20" as="geometry" />
        </mxCell>
        <mxCell id="FlYiySj4yT9UKmQYEukp-20" value="" style="pointerEvents=1;verticalLabelPosition=bottom;shadow=0;dashed=0;align=center;html=1;verticalAlign=top;shape=mxgraph.electrical.miscellaneous.plug_socket_connection" vertex="1" parent="FlYiySj4yT9UKmQYEukp-1">
          <mxGeometry x="95" y="280" width="20" height="20" as="geometry" />
        </mxCell>
        <mxCell id="FlYiySj4yT9UKmQYEukp-21" value="" style="pointerEvents=1;verticalLabelPosition=bottom;shadow=0;dashed=0;align=center;html=1;verticalAlign=top;shape=mxgraph.electrical.miscellaneous.plug_socket_connection" vertex="1" parent="FlYiySj4yT9UKmQYEukp-1">
          <mxGeometry x="125" y="280" width="20" height="20" as="geometry" />
        </mxCell>
        <mxCell id="FlYiySj4yT9UKmQYEukp-22" value="" style="pointerEvents=1;verticalLabelPosition=bottom;shadow=0;dashed=0;align=center;html=1;verticalAlign=top;shape=mxgraph.electrical.miscellaneous.plug_socket_connection" vertex="1" parent="FlYiySj4yT9UKmQYEukp-1">
          <mxGeometry x="155" y="280" width="20" height="20" as="geometry" />
        </mxCell>
        <mxCell id="FlYiySj4yT9UKmQYEukp-25" value="메인 스피커" style="text;html=1;align=center;verticalAlign=middle;whiteSpace=wrap;rounded=0;fontStyle=5;fontSize=14;" vertex="1" parent="FlYiySj4yT9UKmQYEukp-1">
          <mxGeometry x="62.5" y="205" width="85" height="30" as="geometry" />
        </mxCell>
        <mxCell id="FlYiySj4yT9UKmQYEukp-26" value="메인 스피커" style="text;html=1;align=center;verticalAlign=middle;whiteSpace=wrap;rounded=0;fontStyle=5;fontSize=14;" vertex="1" parent="FlYiySj4yT9UKmQYEukp-1">
          <mxGeometry x="711.5" y="205" width="85" height="30" as="geometry" />
        </mxCell>
        <mxCell id="FlYiySj4yT9UKmQYEukp-27" value="Podium 강대상&lt;div&gt;모니터 스피커&lt;/div&gt;" style="text;html=1;align=center;verticalAlign=middle;whiteSpace=wrap;rounded=0;fontStyle=1" vertex="1" parent="FlYiySj4yT9UKmQYEukp-1">
          <mxGeometry x="380" y="40" width="90" height="30" as="geometry" />
        </mxCell>
        <mxCell id="yTDi1r8okf7-M5pfemmc-39" style="edgeStyle=orthogonalEdgeStyle;rounded=0;orthogonalLoop=1;jettySize=auto;html=1;exitX=0.5;exitY=1;exitDx=0;exitDy=0;" edge="1" parent="FlYiySj4yT9UKmQYEukp-1" source="yTDi1r8okf7-M5pfemmc-33" target="FlYiySj4yT9UKmQYEukp-59">
          <mxGeometry relative="1" as="geometry">
            <Array as="points">
              <mxPoint x="420" y="570" />
              <mxPoint x="81" y="570" />
            </Array>
          </mxGeometry>
        </mxCell>
        <mxCell id="yTDi1r8okf7-M5pfemmc-40" value="Local 9" style="edgeLabel;html=1;align=center;verticalAlign=middle;resizable=0;points=[];" vertex="1" connectable="0" parent="yTDi1r8okf7-M5pfemmc-39">
          <mxGeometry x="0.9009" relative="1" as="geometry">
            <mxPoint x="339" y="-57" as="offset" />
          </mxGeometry>
        </mxCell>
        <mxCell id="FlYiySj4yT9UKmQYEukp-59" value="4F Delay" style="pointerEvents=1;verticalLabelPosition=bottom;shadow=0;dashed=0;align=center;html=1;verticalAlign=top;shape=mxgraph.electrical.electro-mechanical.loudspeaker;rotation=90;" vertex="1" parent="FlYiySj4yT9UKmQYEukp-1">
          <mxGeometry x="74.28533783783784" y="617" width="14.285641891891892" height="28.57142857142857" as="geometry" />
        </mxCell>
        <mxCell id="yTDi1r8okf7-M5pfemmc-35" style="edgeStyle=orthogonalEdgeStyle;rounded=0;orthogonalLoop=1;jettySize=auto;html=1;exitX=0.5;exitY=1;exitDx=0;exitDy=0;" edge="1" parent="FlYiySj4yT9UKmQYEukp-1" source="yTDi1r8okf7-M5pfemmc-34" target="FlYiySj4yT9UKmQYEukp-60">
          <mxGeometry relative="1" as="geometry">
            <Array as="points">
              <mxPoint x="81" y="670" />
            </Array>
          </mxGeometry>
        </mxCell>
        <mxCell id="yTDi1r8okf7-M5pfemmc-38" value="Local 10" style="edgeLabel;html=1;align=center;verticalAlign=middle;resizable=0;points=[];" vertex="1" connectable="0" parent="yTDi1r8okf7-M5pfemmc-35">
          <mxGeometry x="0.8765" y="2" relative="1" as="geometry">
            <mxPoint x="331" y="-32" as="offset" />
          </mxGeometry>
        </mxCell>
        <mxCell id="FlYiySj4yT9UKmQYEukp-60" value="5F Delay" style="pointerEvents=1;verticalLabelPosition=bottom;shadow=0;dashed=0;align=center;html=1;verticalAlign=top;shape=mxgraph.electrical.electro-mechanical.loudspeaker;rotation=90;" vertex="1" parent="FlYiySj4yT9UKmQYEukp-1">
          <mxGeometry x="74.28533783783784" y="679.8571428571429" width="14.285641891891892" height="28.57142857142857" as="geometry" />
        </mxCell>
        <mxCell id="FlYiySj4yT9UKmQYEukp-61" value="5F Delay" style="pointerEvents=1;verticalLabelPosition=bottom;shadow=0;dashed=0;align=center;html=1;verticalAlign=top;shape=mxgraph.electrical.electro-mechanical.loudspeaker;rotation=90;" vertex="1" parent="FlYiySj4yT9UKmQYEukp-1">
          <mxGeometry x="258.56533783783783" y="682.7171428571429" width="14.285641891891892" height="28.57142857142857" as="geometry" />
        </mxCell>
        <mxCell id="FlYiySj4yT9UKmQYEukp-62" value="5F Delay" style="pointerEvents=1;verticalLabelPosition=bottom;shadow=0;dashed=0;align=center;html=1;verticalAlign=top;shape=mxgraph.electrical.electro-mechanical.loudspeaker;rotation=90;" vertex="1" parent="FlYiySj4yT9UKmQYEukp-1">
          <mxGeometry x="570.0053378378378" y="679.8571428571429" width="14.285641891891892" height="28.57142857142857" as="geometry" />
        </mxCell>
        <mxCell id="FlYiySj4yT9UKmQYEukp-63" value="5F Delay" style="pointerEvents=1;verticalLabelPosition=bottom;shadow=0;dashed=0;align=center;html=1;verticalAlign=top;shape=mxgraph.electrical.electro-mechanical.loudspeaker;rotation=90;" vertex="1" parent="FlYiySj4yT9UKmQYEukp-1">
          <mxGeometry x="754.2853378378379" y="682.7171428571429" width="14.285641891891892" height="28.57142857142857" as="geometry" />
        </mxCell>
        <mxCell id="FlYiySj4yT9UKmQYEukp-64" value="4F Delay" style="pointerEvents=1;verticalLabelPosition=bottom;shadow=0;dashed=0;align=center;html=1;verticalAlign=top;shape=mxgraph.electrical.electro-mechanical.loudspeaker;rotation=90;" vertex="1" parent="FlYiySj4yT9UKmQYEukp-1">
          <mxGeometry x="258.56533783783783" y="617" width="14.285641891891892" height="28.57142857142857" as="geometry" />
        </mxCell>
        <mxCell id="FlYiySj4yT9UKmQYEukp-65" value="4F Delay" style="pointerEvents=1;verticalLabelPosition=bottom;shadow=0;dashed=0;align=center;html=1;verticalAlign=top;shape=mxgraph.electrical.electro-mechanical.loudspeaker;rotation=90;" vertex="1" parent="FlYiySj4yT9UKmQYEukp-1">
          <mxGeometry x="570.0053378378378" y="617" width="14.285641891891892" height="28.57142857142857" as="geometry" />
        </mxCell>
        <mxCell id="FlYiySj4yT9UKmQYEukp-66" value="4F Delay" style="pointerEvents=1;verticalLabelPosition=bottom;shadow=0;dashed=0;align=center;html=1;verticalAlign=top;shape=mxgraph.electrical.electro-mechanical.loudspeaker;rotation=90;" vertex="1" parent="FlYiySj4yT9UKmQYEukp-1">
          <mxGeometry x="754.2853378378378" y="617" width="14.285641891891892" height="28.57142857142857" as="geometry" />
        </mxCell>
        <mxCell id="FlYiySj4yT9UKmQYEukp-67" value="" style="group;fontStyle=5;strokeColor=none;" vertex="1" connectable="0" parent="FlYiySj4yT9UKmQYEukp-1">
          <mxGeometry x="190.00000000000003" y="290" width="60" height="57.5" as="geometry" />
        </mxCell>
        <mxCell id="FlYiySj4yT9UKmQYEukp-68" value="" style="pointerEvents=1;verticalLabelPosition=bottom;shadow=0;dashed=0;align=center;html=1;verticalAlign=top;shape=mxgraph.electrical.electro-mechanical.loudspeaker;rotation=90;" vertex="1" parent="FlYiySj4yT9UKmQYEukp-67">
          <mxGeometry x="17.149999999999977" y="-12.5" width="25" height="50" as="geometry" />
        </mxCell>
        <mxCell id="FlYiySj4yT9UKmQYEukp-69" value="프론트&lt;div&gt;스피커&lt;/div&gt;" style="text;html=1;align=center;verticalAlign=middle;whiteSpace=wrap;rounded=0;fontStyle=1" vertex="1" parent="FlYiySj4yT9UKmQYEukp-67">
          <mxGeometry y="27.5" width="60" height="30" as="geometry" />
        </mxCell>
        <mxCell id="FlYiySj4yT9UKmQYEukp-73" value="" style="fontColor=#0066CC;verticalAlign=top;verticalLabelPosition=bottom;labelPosition=center;align=center;html=1;outlineConnect=0;fillColor=#CCCCCC;strokeColor=#6881B3;gradientColor=none;gradientDirection=north;strokeWidth=2;shape=mxgraph.networks.patch_panel;rotation=90;points=[[0.02,0.51,0,0,0],[0.02,0.98,0,0,0],[0.27,0,0,0,0],[0.5,0,0,0,0],[0.5,1,0,0,0],[0.73,0,0,0,0],[0.98,0.51,0,0,0],[0.98,0.98,0,0,0]];" vertex="1" parent="FlYiySj4yT9UKmQYEukp-1">
          <mxGeometry x="-190" y="35" width="100" height="35" as="geometry" />
        </mxCell>
        <mxCell id="FlYiySj4yT9UKmQYEukp-74" value="" style="verticalLabelPosition=bottom;html=1;verticalAlign=top;align=center;shape=mxgraph.floorplan.piano;" vertex="1" parent="FlYiySj4yT9UKmQYEukp-1">
          <mxGeometry x="860" width="135" height="143" as="geometry" />
        </mxCell>
        <mxCell id="FlYiySj4yT9UKmQYEukp-75" value="" style="shape=image;html=1;verticalAlign=top;verticalLabelPosition=bottom;labelBackgroundColor=#ffffff;imageAspect=0;aspect=fixed;image=https://cdn2.iconfinder.com/data/icons/analytic-investment-and-balanced-scorecard/512/406_synth_keyboard_midi_synthesiser_synthesizer_sound_design_producstion-128.png" vertex="1" parent="FlYiySj4yT9UKmQYEukp-1">
          <mxGeometry x="-260" y="93" width="32.5" height="32.5" as="geometry" />
        </mxCell>
        <mxCell id="FlYiySj4yT9UKmQYEukp-76" value="" style="shape=image;html=1;verticalAlign=top;verticalLabelPosition=bottom;labelBackgroundColor=#ffffff;imageAspect=0;aspect=fixed;image=https://cdn2.iconfinder.com/data/icons/analytic-investment-and-balanced-scorecard/512/406_synth_keyboard_midi_synthesiser_synthesizer_sound_design_producstion-128.png" vertex="1" parent="FlYiySj4yT9UKmQYEukp-1">
          <mxGeometry x="-100" width="100.07" height="100.07" as="geometry" />
        </mxCell>
        <mxCell id="FlYiySj4yT9UKmQYEukp-77" value="" style="shape=image;html=1;verticalAlign=top;verticalLabelPosition=bottom;labelBackgroundColor=#ffffff;imageAspect=0;aspect=fixed;image=https://cdn2.iconfinder.com/data/icons/analytic-investment-and-balanced-scorecard/512/408_drum_drums_instrument_kit_musical_sound_design_producstion-128.png" vertex="1" parent="FlYiySj4yT9UKmQYEukp-1">
          <mxGeometry x="-270" y="15.07" width="70.5" height="70.5" as="geometry" />
        </mxCell>
        <mxCell id="FlYiySj4yT9UKmQYEukp-83" value="" style="shape=image;html=1;verticalAlign=top;verticalLabelPosition=bottom;labelBackgroundColor=#ffffff;imageAspect=0;aspect=fixed;image=https://cdn0.iconfinder.com/data/icons/ie_Bright/128/guitar.png" vertex="1" parent="FlYiySj4yT9UKmQYEukp-1">
          <mxGeometry x="-370" y="45.5" width="35" height="35" as="geometry" />
        </mxCell>
        <mxCell id="FlYiySj4yT9UKmQYEukp-84" value="" style="shape=image;html=1;verticalAlign=top;verticalLabelPosition=bottom;labelBackgroundColor=#ffffff;imageAspect=0;aspect=fixed;image=https://cdn0.iconfinder.com/data/icons/icons-unleashed-vol1/128/-guitar.png" vertex="1" parent="FlYiySj4yT9UKmQYEukp-1">
          <mxGeometry x="-320" y="45.5" width="34" height="34" as="geometry" />
        </mxCell>
        <mxCell id="yTDi1r8okf7-M5pfemmc-27" style="edgeStyle=orthogonalEdgeStyle;rounded=0;orthogonalLoop=1;jettySize=auto;html=1;exitX=0;exitY=0.5;exitDx=0;exitDy=0;" edge="1" parent="FlYiySj4yT9UKmQYEukp-1" source="yTDi1r8okf7-M5pfemmc-25" target="FlYiySj4yT9UKmQYEukp-88">
          <mxGeometry relative="1" as="geometry" />
        </mxCell>
        <mxCell id="yTDi1r8okf7-M5pfemmc-28" value="Local 7" style="edgeLabel;html=1;align=center;verticalAlign=middle;resizable=0;points=[];" vertex="1" connectable="0" parent="yTDi1r8okf7-M5pfemmc-27">
          <mxGeometry x="-0.0533" relative="1" as="geometry">
            <mxPoint as="offset" />
          </mxGeometry>
        </mxCell>
        <mxCell id="FlYiySj4yT9UKmQYEukp-88" value="" style="pointerEvents=1;verticalLabelPosition=bottom;shadow=0;dashed=0;align=center;html=1;verticalAlign=top;shape=mxgraph.electrical.electro-mechanical.loudspeaker;rotation=-180;" vertex="1" parent="FlYiySj4yT9UKmQYEukp-1">
          <mxGeometry x="-162.45999999999998" y="143" width="25" height="50" as="geometry" />
        </mxCell>
        <mxCell id="yTDi1r8okf7-M5pfemmc-32" value="Local 8" style="edgeStyle=orthogonalEdgeStyle;rounded=0;orthogonalLoop=1;jettySize=auto;html=1;exitX=1;exitY=0.5;exitDx=0;exitDy=0;" edge="1" parent="FlYiySj4yT9UKmQYEukp-1" source="yTDi1r8okf7-M5pfemmc-30" target="FlYiySj4yT9UKmQYEukp-89">
          <mxGeometry relative="1" as="geometry" />
        </mxCell>
        <mxCell id="FlYiySj4yT9UKmQYEukp-89" value="" style="pointerEvents=1;verticalLabelPosition=bottom;shadow=0;dashed=0;align=center;html=1;verticalAlign=top;shape=mxgraph.electrical.electro-mechanical.loudspeaker;rotation=0;" vertex="1" parent="FlYiySj4yT9UKmQYEukp-1">
          <mxGeometry x="995.0000000000001" y="170" width="25" height="50" as="geometry" />
        </mxCell>
        <mxCell id="FlYiySj4yT9UKmQYEukp-90" value="사이드 스피커&lt;div&gt;Side L&lt;/div&gt;" style="text;html=1;align=center;verticalAlign=middle;whiteSpace=wrap;rounded=0;fontStyle=1;strokeColor=default;" vertex="1" parent="FlYiySj4yT9UKmQYEukp-1">
          <mxGeometry x="-190" y="200" width="80" height="30" as="geometry" />
        </mxCell>
        <mxCell id="FlYiySj4yT9UKmQYEukp-92" style="edgeStyle=orthogonalEdgeStyle;rounded=0;orthogonalLoop=1;jettySize=auto;html=1;exitX=0.5;exitY=0;exitDx=0;exitDy=0;entryX=0;entryY=0.4;entryDx=0;entryDy=0;entryPerimeter=0;" edge="1" parent="FlYiySj4yT9UKmQYEukp-1" source="FlYiySj4yT9UKmQYEukp-76" target="FlYiySj4yT9UKmQYEukp-95">
          <mxGeometry relative="1" as="geometry" />
        </mxCell>
        <mxCell id="FlYiySj4yT9UKmQYEukp-95" value="오르간 스피커&lt;div&gt;(독립 시스템)&lt;/div&gt;" style="pointerEvents=1;verticalLabelPosition=bottom;shadow=0;dashed=0;align=center;html=1;verticalAlign=top;shape=mxgraph.electrical.electro-mechanical.loudspeaker;rotation=0;" vertex="1" parent="FlYiySj4yT9UKmQYEukp-1">
          <mxGeometry x="-390" y="160" width="42.5" height="80" as="geometry" />
        </mxCell>
        <mxCell id="yTDi1r8okf7-M5pfemmc-6" value="Main L" style="text;html=1;align=center;verticalAlign=middle;whiteSpace=wrap;rounded=0;fillColor=#bac8d3;strokeColor=#23445d;" vertex="1" parent="FlYiySj4yT9UKmQYEukp-1">
          <mxGeometry x="140.25" y="100.07" width="60" height="30" as="geometry" />
        </mxCell>
        <mxCell id="yTDi1r8okf7-M5pfemmc-7" style="edgeStyle=orthogonalEdgeStyle;rounded=0;orthogonalLoop=1;jettySize=auto;html=1;" edge="1" parent="FlYiySj4yT9UKmQYEukp-1">
          <mxGeometry relative="1" as="geometry">
            <mxPoint x="690" y="200" as="targetPoint" />
            <mxPoint x="690" y="131" as="sourcePoint" />
          </mxGeometry>
        </mxCell>
        <mxCell id="yTDi1r8okf7-M5pfemmc-10" value="Local 11" style="edgeLabel;html=1;align=center;verticalAlign=middle;resizable=0;points=[];" vertex="1" connectable="0" parent="yTDi1r8okf7-M5pfemmc-7">
          <mxGeometry x="-0.0794" relative="1" as="geometry">
            <mxPoint as="offset" />
          </mxGeometry>
        </mxCell>
        <mxCell id="yTDi1r8okf7-M5pfemmc-8" value="Main R" style="text;html=1;align=center;verticalAlign=middle;whiteSpace=wrap;rounded=0;fillColor=#bac8d3;strokeColor=#23445d;" vertex="1" parent="FlYiySj4yT9UKmQYEukp-1">
          <mxGeometry x="660.25" y="101.07" width="60" height="30" as="geometry" />
        </mxCell>
        <mxCell id="yTDi1r8okf7-M5pfemmc-11" value="Front" style="text;html=1;align=center;verticalAlign=middle;whiteSpace=wrap;rounded=0;fillColor=#cdeb8b;strokeColor=none;" vertex="1" parent="FlYiySj4yT9UKmQYEukp-1">
          <mxGeometry x="235.70999999999998" y="205" width="60" height="30" as="geometry" />
        </mxCell>
        <mxCell id="yTDi1r8okf7-M5pfemmc-12" style="edgeStyle=orthogonalEdgeStyle;rounded=0;orthogonalLoop=1;jettySize=auto;html=1;exitX=0.5;exitY=1;exitDx=0;exitDy=0;" edge="1" parent="FlYiySj4yT9UKmQYEukp-1" source="yTDi1r8okf7-M5pfemmc-11" target="FlYiySj4yT9UKmQYEukp-68">
          <mxGeometry relative="1" as="geometry" />
        </mxCell>
        <mxCell id="yTDi1r8okf7-M5pfemmc-13" value="Local 5" style="edgeLabel;html=1;align=center;verticalAlign=middle;resizable=0;points=[];" vertex="1" connectable="0" parent="yTDi1r8okf7-M5pfemmc-12">
          <mxGeometry x="-0.0479" relative="1" as="geometry">
            <mxPoint as="offset" />
          </mxGeometry>
        </mxCell>
        <mxCell id="yTDi1r8okf7-M5pfemmc-14" value="Front" style="text;html=1;align=center;verticalAlign=middle;whiteSpace=wrap;rounded=0;fillColor=#cdeb8b;strokeColor=none;" vertex="1" parent="FlYiySj4yT9UKmQYEukp-1">
          <mxGeometry x="549" y="205" width="60" height="30" as="geometry" />
        </mxCell>
        <mxCell id="yTDi1r8okf7-M5pfemmc-16" value="r" style="edgeStyle=orthogonalEdgeStyle;rounded=0;orthogonalLoop=1;jettySize=auto;html=1;exitX=0.5;exitY=1;exitDx=0;exitDy=0;" edge="1" parent="FlYiySj4yT9UKmQYEukp-1" source="yTDi1r8okf7-M5pfemmc-14" target="FlYiySj4yT9UKmQYEukp-71">
          <mxGeometry relative="1" as="geometry">
            <Array as="points">
              <mxPoint x="579" y="260" />
              <mxPoint x="639" y="260" />
            </Array>
          </mxGeometry>
        </mxCell>
        <mxCell id="yTDi1r8okf7-M5pfemmc-17" value="Local 5" style="edgeLabel;html=1;align=center;verticalAlign=middle;resizable=0;points=[];" vertex="1" connectable="0" parent="yTDi1r8okf7-M5pfemmc-16">
          <mxGeometry x="0.1106" relative="1" as="geometry">
            <mxPoint as="offset" />
          </mxGeometry>
        </mxCell>
        <mxCell id="yTDi1r8okf7-M5pfemmc-18" value="Podium" style="text;html=1;align=center;verticalAlign=middle;whiteSpace=wrap;rounded=0;fillColor=#bac8d3;strokeColor=#23445d;" vertex="1" parent="FlYiySj4yT9UKmQYEukp-1">
          <mxGeometry x="200.25" y="40" width="60" height="30" as="geometry" />
        </mxCell>
        <mxCell id="yTDi1r8okf7-M5pfemmc-19" value="Podium" style="text;html=1;align=center;verticalAlign=middle;whiteSpace=wrap;rounded=0;fillColor=#bac8d3;strokeColor=#23445d;" vertex="1" parent="FlYiySj4yT9UKmQYEukp-1">
          <mxGeometry x="584.29" y="40" width="60" height="30" as="geometry" />
        </mxCell>
        <mxCell id="yTDi1r8okf7-M5pfemmc-25" value="Side L" style="text;html=1;align=center;verticalAlign=middle;whiteSpace=wrap;rounded=0;fillColor=#cdeb8b;strokeColor=none;" vertex="1" parent="FlYiySj4yT9UKmQYEukp-1">
          <mxGeometry x="-70" y="153" width="60" height="30" as="geometry" />
        </mxCell>
        <mxCell id="yTDi1r8okf7-M5pfemmc-30" value="Side R" style="text;html=1;align=center;verticalAlign=middle;whiteSpace=wrap;rounded=0;fillColor=#cdeb8b;strokeColor=none;" vertex="1" parent="FlYiySj4yT9UKmQYEukp-1">
          <mxGeometry x="860" y="180" width="60" height="30" as="geometry" />
        </mxCell>
        <mxCell id="yTDi1r8okf7-M5pfemmc-33" value="4F Dly" style="text;html=1;align=center;verticalAlign=middle;whiteSpace=wrap;rounded=0;fillColor=#b1ddf0;strokeColor=#10739e;" vertex="1" parent="FlYiySj4yT9UKmQYEukp-1">
          <mxGeometry x="390" y="500" width="60" height="30" as="geometry" />
        </mxCell>
        <mxCell id="yTDi1r8okf7-M5pfemmc-34" value="5F Dly" style="text;html=1;align=center;verticalAlign=middle;whiteSpace=wrap;rounded=0;fillColor=#b1ddf0;strokeColor=#10739e;" vertex="1" parent="FlYiySj4yT9UKmQYEukp-1">
          <mxGeometry x="390" y="590" width="60" height="30" as="geometry" />
        </mxCell>
        <mxCell id="Z8FizWpEyoFCQWAhVLHP-0" value="" style="rounded=0;whiteSpace=wrap;html=1;fillColor=none;" vertex="1" parent="FlYiySj4yT9UKmQYEukp-1">
          <mxGeometry x="-240" y="520" width="230" height="140" as="geometry" />
        </mxCell>
        <mxCell id="Z8FizWpEyoFCQWAhVLHP-3" style="edgeStyle=orthogonalEdgeStyle;rounded=0;orthogonalLoop=1;jettySize=auto;html=1;" edge="1" parent="FlYiySj4yT9UKmQYEukp-1" source="Z8FizWpEyoFCQWAhVLHP-2" target="Z8FizWpEyoFCQWAhVLHP-1">
          <mxGeometry relative="1" as="geometry">
            <Array as="points">
              <mxPoint x="-50" y="555" />
            </Array>
          </mxGeometry>
        </mxCell>
        <mxCell id="Z8FizWpEyoFCQWAhVLHP-4" value="Local 4" style="edgeLabel;html=1;align=center;verticalAlign=middle;resizable=0;points=[];" vertex="1" connectable="0" parent="Z8FizWpEyoFCQWAhVLHP-3">
          <mxGeometry x="0.5196" y="1" relative="1" as="geometry">
            <mxPoint x="-1" y="-50" as="offset" />
          </mxGeometry>
        </mxCell>
        <mxCell id="Z8FizWpEyoFCQWAhVLHP-1" value="" style="pointerEvents=1;verticalLabelPosition=bottom;shadow=0;dashed=0;align=center;html=1;verticalAlign=top;shape=mxgraph.electrical.electro-mechanical.loudspeaker;rotation=-180;" vertex="1" parent="FlYiySj4yT9UKmQYEukp-1">
          <mxGeometry x="-94.99999999999997" y="530" width="25" height="50" as="geometry" />
        </mxCell>
        <mxCell id="Z8FizWpEyoFCQWAhVLHP-2" value="Baby" style="text;html=1;align=center;verticalAlign=middle;whiteSpace=wrap;rounded=0;fillColor=#ffff88;strokeColor=#36393d;" vertex="1" parent="FlYiySj4yT9UKmQYEukp-1">
          <mxGeometry x="-79.96000000000001" y="440" width="60" height="30" as="geometry" />
        </mxCell>
        <mxCell id="Z8FizWpEyoFCQWAhVLHP-19" style="edgeStyle=orthogonalEdgeStyle;rounded=0;orthogonalLoop=1;jettySize=auto;html=1;exitX=0.5;exitY=0;exitDx=0;exitDy=0;entryX=0;entryY=0.4;entryDx=0;entryDy=0;entryPerimeter=0;" edge="1" parent="FlYiySj4yT9UKmQYEukp-1" source="Z8FizWpEyoFCQWAhVLHP-15" target="Z8FizWpEyoFCQWAhVLHP-6">
          <mxGeometry relative="1" as="geometry" />
        </mxCell>
        <mxCell id="Z8FizWpEyoFCQWAhVLHP-20" value="Local 2" style="edgeLabel;html=1;align=center;verticalAlign=middle;resizable=0;points=[];" vertex="1" connectable="0" parent="Z8FizWpEyoFCQWAhVLHP-19">
          <mxGeometry x="0.04" y="2" relative="1" as="geometry">
            <mxPoint as="offset" />
          </mxGeometry>
        </mxCell>
        <mxCell id="Z8FizWpEyoFCQWAhVLHP-6" value="" style="pointerEvents=1;verticalLabelPosition=bottom;shadow=0;dashed=0;align=center;html=1;verticalAlign=top;shape=mxgraph.electrical.electro-mechanical.loudspeaker;rotation=-90;" vertex="1" parent="FlYiySj4yT9UKmQYEukp-1">
          <mxGeometry x="266.59999999999997" y="367.43" width="25" height="50" as="geometry" />
        </mxCell>
        <mxCell id="Z8FizWpEyoFCQWAhVLHP-7" value="싱어&lt;div&gt;모니터 스피커&lt;/div&gt;" style="text;html=1;align=center;verticalAlign=middle;whiteSpace=wrap;rounded=0;fontStyle=1;strokeColor=default;" vertex="1" parent="FlYiySj4yT9UKmQYEukp-1">
          <mxGeometry x="240" y="347.5" width="78.21" height="30" as="geometry" />
        </mxCell>
        <mxCell id="Z8FizWpEyoFCQWAhVLHP-9" value="" style="pointerEvents=1;verticalLabelPosition=bottom;shadow=0;dashed=0;align=center;html=1;verticalAlign=top;shape=mxgraph.electrical.electro-mechanical.loudspeaker;rotation=-90;" vertex="1" parent="FlYiySj4yT9UKmQYEukp-1">
          <mxGeometry x="344.80999999999995" y="367.43" width="25" height="50" as="geometry" />
        </mxCell>
        <mxCell id="Z8FizWpEyoFCQWAhVLHP-10" value="싱어&lt;div&gt;모니터 스피커&lt;/div&gt;" style="text;html=1;align=center;verticalAlign=middle;whiteSpace=wrap;rounded=0;fontStyle=1;strokeColor=default;" vertex="1" parent="FlYiySj4yT9UKmQYEukp-1">
          <mxGeometry x="318.21" y="347.5" width="78.21" height="30" as="geometry" />
        </mxCell>
        <mxCell id="Z8FizWpEyoFCQWAhVLHP-11" value="" style="pointerEvents=1;verticalLabelPosition=bottom;shadow=0;dashed=0;align=center;html=1;verticalAlign=top;shape=mxgraph.electrical.electro-mechanical.loudspeaker;rotation=-90;" vertex="1" parent="FlYiySj4yT9UKmQYEukp-1">
          <mxGeometry x="479.17999999999995" y="360" width="25" height="50" as="geometry" />
        </mxCell>
        <mxCell id="Z8FizWpEyoFCQWAhVLHP-12" value="싱어&lt;div&gt;모니터 스피커&lt;/div&gt;" style="text;html=1;align=center;verticalAlign=middle;whiteSpace=wrap;rounded=0;fontStyle=1;strokeColor=default;" vertex="1" parent="FlYiySj4yT9UKmQYEukp-1">
          <mxGeometry x="452.58" y="340.07" width="78.21" height="30" as="geometry" />
        </mxCell>
        <mxCell id="Z8FizWpEyoFCQWAhVLHP-13" value="" style="pointerEvents=1;verticalLabelPosition=bottom;shadow=0;dashed=0;align=center;html=1;verticalAlign=top;shape=mxgraph.electrical.electro-mechanical.loudspeaker;rotation=-90;" vertex="1" parent="FlYiySj4yT9UKmQYEukp-1">
          <mxGeometry x="557.39" y="360" width="25" height="50" as="geometry" />
        </mxCell>
        <mxCell id="Z8FizWpEyoFCQWAhVLHP-14" value="싱어&lt;div&gt;모니터 스피커&lt;/div&gt;" style="text;html=1;align=center;verticalAlign=middle;whiteSpace=wrap;rounded=0;fontStyle=1;strokeColor=default;" vertex="1" parent="FlYiySj4yT9UKmQYEukp-1">
          <mxGeometry x="530.7900000000001" y="340.07" width="78.21" height="30" as="geometry" />
        </mxCell>
        <mxCell id="Z8FizWpEyoFCQWAhVLHP-15" value="Vox 1" style="text;html=1;align=center;verticalAlign=middle;whiteSpace=wrap;rounded=0;fillColor=#cdeb8b;strokeColor=none;" vertex="1" parent="FlYiySj4yT9UKmQYEukp-1">
          <mxGeometry x="235.71000000000004" y="460" width="80" height="40" as="geometry" />
        </mxCell>
        <mxCell id="Z8FizWpEyoFCQWAhVLHP-22" value="Vox 2" style="text;html=1;align=center;verticalAlign=middle;whiteSpace=wrap;rounded=0;fillColor=#cdeb8b;strokeColor=none;" vertex="1" parent="FlYiySj4yT9UKmQYEukp-1">
          <mxGeometry x="535.72" y="460" width="80" height="40" as="geometry" />
        </mxCell>
        <mxCell id="Z8FizWpEyoFCQWAhVLHP-23" style="edgeStyle=orthogonalEdgeStyle;rounded=0;orthogonalLoop=1;jettySize=auto;html=1;entryX=0;entryY=0.6;entryDx=0;entryDy=0;entryPerimeter=0;" edge="1" parent="FlYiySj4yT9UKmQYEukp-1" source="Z8FizWpEyoFCQWAhVLHP-22" target="Z8FizWpEyoFCQWAhVLHP-13">
          <mxGeometry relative="1" as="geometry" />
        </mxCell>
        <mxCell id="Z8FizWpEyoFCQWAhVLHP-26" value="Local 3" style="edgeLabel;html=1;align=center;verticalAlign=middle;resizable=0;points=[];" vertex="1" connectable="0" parent="Z8FizWpEyoFCQWAhVLHP-23">
          <mxGeometry x="-0.1115" relative="1" as="geometry">
            <mxPoint as="offset" />
          </mxGeometry>
        </mxCell>
        <mxCell id="Z8FizWpEyoFCQWAhVLHP-27" style="edgeStyle=orthogonalEdgeStyle;rounded=0;orthogonalLoop=1;jettySize=auto;html=1;exitX=0;exitY=0.4;exitDx=0;exitDy=0;exitPerimeter=0;entryX=0;entryY=0.6;entryDx=0;entryDy=0;entryPerimeter=0;" edge="1" parent="FlYiySj4yT9UKmQYEukp-1" source="Z8FizWpEyoFCQWAhVLHP-13" target="Z8FizWpEyoFCQWAhVLHP-11">
          <mxGeometry relative="1" as="geometry" />
        </mxCell>
        <mxCell id="Z8FizWpEyoFCQWAhVLHP-28" style="edgeStyle=orthogonalEdgeStyle;rounded=0;orthogonalLoop=1;jettySize=auto;html=1;exitX=0;exitY=0.6;exitDx=0;exitDy=0;exitPerimeter=0;entryX=0;entryY=0.4;entryDx=0;entryDy=0;entryPerimeter=0;" edge="1" parent="FlYiySj4yT9UKmQYEukp-1" source="Z8FizWpEyoFCQWAhVLHP-6" target="Z8FizWpEyoFCQWAhVLHP-9">
          <mxGeometry relative="1" as="geometry">
            <Array as="points">
              <mxPoint x="284" y="420" />
              <mxPoint x="352" y="420" />
            </Array>
          </mxGeometry>
        </mxCell>
        <mxCell id="FlYiySj4yT9UKmQYEukp-71" value="" style="pointerEvents=1;verticalLabelPosition=bottom;shadow=0;dashed=0;align=center;html=1;verticalAlign=top;shape=mxgraph.electrical.electro-mechanical.loudspeaker;rotation=90;" vertex="1" parent="FlYiySj4yT9UKmQYEukp-1">
          <mxGeometry x="626.15" y="277.5" width="25" height="50" as="geometry" />
        </mxCell>
        <mxCell id="FlYiySj4yT9UKmQYEukp-72" value="프론트&lt;div&gt;스피커&lt;/div&gt;" style="text;html=1;align=center;verticalAlign=middle;whiteSpace=wrap;rounded=0;fontStyle=1;strokeColor=default;" vertex="1" parent="FlYiySj4yT9UKmQYEukp-1">
          <mxGeometry x="609" y="317.5" width="60" height="30" as="geometry" />
        </mxCell>
        <mxCell id="_gQsiu4f5CarANJX_0fw-1" value="사이드 스피커&lt;div&gt;Side R&lt;/div&gt;" style="text;html=1;align=center;verticalAlign=middle;whiteSpace=wrap;rounded=0;fontStyle=1;strokeColor=default;" vertex="1" parent="FlYiySj4yT9UKmQYEukp-1">
          <mxGeometry x="967.5" y="230" width="80" height="30" as="geometry" />
        </mxCell>
        <mxCell id="_gQsiu4f5CarANJX_0fw-2" value="자모실" style="text;html=1;align=center;verticalAlign=middle;whiteSpace=wrap;rounded=0;fontSize=21;fontStyle=1" vertex="1" parent="FlYiySj4yT9UKmQYEukp-1">
          <mxGeometry x="-220" y="530" width="100" height="50" as="geometry" />
        </mxCell>
        <mxCell id="_gQsiu4f5CarANJX_0fw-3" value="강대상" style="text;html=1;align=center;verticalAlign=middle;whiteSpace=wrap;rounded=0;fontSize=21;fontStyle=1" vertex="1" parent="FlYiySj4yT9UKmQYEukp-1">
          <mxGeometry x="379.99999999999994" y="95" width="100" height="50" as="geometry" />
        </mxCell>
        <mxCell id="_gQsiu4f5CarANJX_0fw-4" value="발코니" style="text;html=1;align=center;verticalAlign=middle;whiteSpace=wrap;rounded=0;fontSize=21;fontStyle=1" vertex="1" parent="FlYiySj4yT9UKmQYEukp-1">
          <mxGeometry x="469.99999999999994" y="525" width="100" height="50" as="geometry" />
        </mxCell>
      </root>
    </mxGraphModel>
  </diagram>
  <diagram id="ipISw2LT0ktFu8UBkytv" name="Page-3">
    <mxGraphModel dx="1050" dy="557" grid="1" gridSize="10" guides="1" tooltips="1" connect="1" arrows="1" fold="1" page="1" pageScale="1" pageWidth="850" pageHeight="1100" math="0" shadow="0">
      <root>
        <mxCell id="0" />
        <mxCell id="1" parent="0" />
      </root>
    </mxGraphModel>
  </diagram>
</mxfile>
